<?xml version="1.0" encoding="UTF-8"?>
<svg width="99px" height="379px" viewBox="0 0 99 379" version="1.1" xmlns="http://www.w3.org/2000/svg" xmlns:xlink="http://www.w3.org/1999/xlink">
    <!-- Generator: Sketch 44.1 (41455) - http://www.bohemiancoding.com/sketch -->
    <title>4hearts</title>
    <desc>Created with Sketch.</desc>
    <defs></defs>
    <g id="Page-1" stroke="none" stroke-width="1" fill="none" fill-rule="evenodd" stroke-linecap="square">
        <g id="storeWithOpenContact" transform="translate(0.000000, -149.000000)">
            <g id="4hearts" transform="translate(-4.000000, 146.000000)">
                <g id="hearts" transform="translate(0.000000, 207.000000)" stroke="#FFFFFF" stroke-width="5">
                    <g id="heart" transform="translate(51.166727, 44.975096) rotate(-20.000000) translate(-51.166727, -44.975096) translate(8.666727, 12.975096)">
                        <path d="M84.010989,10.5 C69.4106433,1.84493394 60.1658413,-1.43567455 56.2765829,0.658174529 C53.9170886,1.9284488 45.7911212,8.24272348 43.6261213,14.6411967 C41.4611214,21.0396699 43.6261213,34.5892452 43.6261213,37 C43.6261213,42.930834 57.0877439,51.7641673 84.010989,63.5" id="Line" transform="translate(63.337444, 31.773182) scale(-1, 1) translate(-63.337444, -31.773182) "></path>
                        <path d="M41.7032967,10.5 C27.102951,1.84493394 17.858149,-1.43567455 13.9688906,0.658174529 C11.6093963,1.9284488 3.48342891,8.24272348 1.31842899,14.6411967 C-0.846570938,21.0396699 1.31842899,34.5892452 1.31842899,37 C1.31842899,42.930834 14.7800516,51.7641673 41.7032967,63.5" id="Line"></path>
                    </g>
                    <g id="heart" transform="translate(54.793100, 142.106642) rotate(20.000000) translate(-54.793100, -142.106642) translate(12.293100, 110.106642)">
                        <path d="M84.010989,10.5 C69.4106433,1.84493394 60.1658413,-1.43567455 56.2765829,0.658174529 C53.9170886,1.9284488 45.7911212,8.24272348 43.6261213,14.6411967 C41.4611214,21.0396699 43.6261213,34.5892452 43.6261213,37 C43.6261213,42.930834 57.0877439,51.7641673 84.010989,63.5" id="Line" transform="translate(63.337444, 31.773182) scale(-1, 1) translate(-63.337444, -31.773182) "></path>
                        <path d="M41.7032967,10.5 C27.102951,1.84493394 17.858149,-1.43567455 13.9688906,0.658174529 C11.6093963,1.9284488 3.48342891,8.24272348 1.31842899,14.6411967 C-0.846570938,21.0396699 1.31842899,34.5892452 1.31842899,37 C1.31842899,42.930834 14.7800516,51.7641673 41.7032967,63.5" id="Line"></path>
                    </g>
                </g>
                <g id="hearts" transform="translate(1.000000, 0.000000)" stroke="#FFFFFF" stroke-width="5">
                    <g id="heart" transform="translate(51.166727, 44.975096) rotate(-20.000000) translate(-51.166727, -44.975096) translate(8.666727, 12.975096)">
                        <path d="M84.010989,10.5 C69.4106433,1.84493394 60.1658413,-1.43567455 56.2765829,0.658174529 C53.9170886,1.9284488 45.7911212,8.24272348 43.6261213,14.6411967 C41.4611214,21.0396699 43.6261213,34.5892452 43.6261213,37 C43.6261213,42.930834 57.0877439,51.7641673 84.010989,63.5" id="Line" transform="translate(63.337444, 31.773182) scale(-1, 1) translate(-63.337444, -31.773182) "></path>
                        <path d="M41.7032967,10.5 C27.102951,1.84493394 17.858149,-1.43567455 13.9688906,0.658174529 C11.6093963,1.9284488 3.48342891,8.24272348 1.31842899,14.6411967 C-0.846570938,21.0396699 1.31842899,34.5892452 1.31842899,37 C1.31842899,42.930834 14.7800516,51.7641673 41.7032967,63.5" id="Line"></path>
                    </g>
                    <g id="heart" transform="translate(54.793100, 142.106642) rotate(20.000000) translate(-54.793100, -142.106642) translate(12.293100, 110.106642)">
                        <path d="M84.010989,10.5 C69.4106433,1.84493394 60.1658413,-1.43567455 56.2765829,0.658174529 C53.9170886,1.9284488 45.7911212,8.24272348 43.6261213,14.6411967 C41.4611214,21.0396699 43.6261213,34.5892452 43.6261213,37 C43.6261213,42.930834 57.0877439,51.7641673 84.010989,63.5" id="Line" transform="translate(63.337444, 31.773182) scale(-1, 1) translate(-63.337444, -31.773182) "></path>
                        <path d="M41.7032967,10.5 C27.102951,1.84493394 17.858149,-1.43567455 13.9688906,0.658174529 C11.6093963,1.9284488 3.48342891,8.24272348 1.31842899,14.6411967 C-0.846570938,21.0396699 1.31842899,34.5892452 1.31842899,37 C1.31842899,42.930834 14.7800516,51.7641673 41.7032967,63.5" id="Line"></path>
                    </g>
                </g>
                <path d="M48.5,250.5 L33.5,276.5" id="Line" stroke="#F55600" stroke-width="3"></path>
                <path d="M31.5,279 L41.5,279" id="Line" stroke="#000000" stroke-width="2"></path>
                <path d="M80.5,188.5 L78.5,182.5" id="Line" stroke="#001FF5"></path>
                <path d="M88.5,188.5 L82.5,189.5" id="Line" stroke="#001FF5"></path>
                <path d="M89.9642735,184.919588 L84.364461,186.020941" id="Line" stroke="#001FF5"></path>
                <path d="M28.5,269.5 L41.5,278.5" id="Line" stroke="#000000" stroke-width="2"></path>
                <path d="M30,273 L39,278" id="Line" stroke="#000000" stroke-width="2"></path>
                <path d="M30,275 L36,278" id="Line" stroke="#000000" stroke-width="2"></path>
                <path d="M31,277 L35,279" id="Line" stroke="#000000" stroke-width="2"></path>
                <path d="M30.5,278.5 L28.5,270.5" id="Line" stroke="#000000" stroke-width="2"></path>
                <path d="M84.5,184.5 L69.5,210.5" id="Line" stroke="#F55600" stroke-width="3"></path>
            </g>
        </g>
    </g>
</svg>