<?xml version="1.0" encoding="UTF-8"?>
<svg width="730px" height="80px" viewBox="0 0 730 80" version="1.1" xmlns="http://www.w3.org/2000/svg" xmlns:xlink="http://www.w3.org/1999/xlink">
    <!-- Generator: Sketch 44.1 (41455) - http://www.bohemiancoding.com/sketch -->
    <title>underlines</title>
    <desc>Created with Sketch.</desc>
    <defs></defs>
    <g id="Page-1" stroke="none" stroke-width="1" fill="none" fill-rule="evenodd" stroke-linecap="square">
        <g id="storeWithOpenContact" transform="translate(-187.000000, -1766.000000)">
            <g id="underlines" transform="translate(187.000000, 1767.000000)">
                <g id="underline" transform="translate(356.500000, 36.500000) scale(-1, 1) translate(-356.500000, -36.500000) ">
                    <polyline id="Line" stroke="#FFFFFF" points="0.5 72.5 695.167767 72.5 695.167767 49.9840456 673.805138 50.2806733 673.696793 65.1365028 690.784267 64.7288874 690.175817 53.8058526 680.000627 54.1698656 680.000627 59.6115639 686.31239 59.3691087"></polyline>
                    <path d="M712.5,6.5 C709.985211,5.098812 708.177973,4.12209996 707.078288,3.56986389 C700.921397,0.478019929 696.961653,-0.546950719 695.199054,0.494951952 C691.846813,2.47651937 689.109896,20.8308818 689.109896,23.5 C689.109896,27.3843804 696.906597,33.0510471 712.5,40.5" id="Line" stroke="#F198B0" fill="#F198B0" transform="translate(700.804948, 20.300519) scale(-1, 1) translate(-700.804948, -20.300519) "></path>
                    <path d="M689.5,6.5 C686.985211,5.098812 685.177973,4.12209996 684.078288,3.56986389 C677.921397,0.478019929 673.961653,-0.546950719 672.199054,0.494951952 C668.846813,2.47651937 666.109896,20.8308818 666.109896,23.5 C666.109896,27.3843804 673.906597,33.0510471 689.5,40.5" id="Line" stroke="#F198B0" fill="#F198B0"></path>
                </g>
                <g id="underline" transform="translate(17.000000, 0.000000)">
                    <polyline id="Line" stroke="#FFFFFF" points="0.5 72.5 695.167767 72.5 695.167767 49.9840456 673.805138 50.2806733 673.696793 65.1365028 690.784267 64.7288874 690.175817 53.8058526 680.000627 54.1698656 680.000627 59.6115639 686.31239 59.3691087"></polyline>
                    <path d="M712.5,6.5 C709.985211,5.098812 708.177973,4.12209996 707.078288,3.56986389 C700.921397,0.478019929 696.961653,-0.546950719 695.199054,0.494951952 C691.846813,2.47651937 689.109896,20.8308818 689.109896,23.5 C689.109896,27.3843804 696.906597,33.0510471 712.5,40.5" id="Line" stroke="#F198B0" fill="#F198B0" transform="translate(700.804948, 20.300519) scale(-1, 1) translate(-700.804948, -20.300519) "></path>
                    <path d="M689.5,6.5 C686.985211,5.098812 685.177973,4.12209996 684.078288,3.56986389 C677.921397,0.478019929 673.961653,-0.546950719 672.199054,0.494951952 C668.846813,2.47651937 666.109896,20.8308818 666.109896,23.5 C666.109896,27.3843804 673.906597,33.0510471 689.5,40.5" id="Line" stroke="#F198B0" fill="#F198B0"></path>
                </g>
                <path d="M40.5,78.5 L688.5,78.5" id="Line" stroke="#001FF5"></path>
            </g>
        </g>
    </g>
</svg>