<svg xmlns="http://www.w3.org/2000/svg" x="0px" y="0px"
     width="269px" height="112px" viewBox="0 0 269 112" enable-background="new 0 0 269 112">
    <g stroke="#001FF5" fill="none" stroke-width="1" stroke-linecap="round" stroke-linejoin="round">
        <g id="Mobile" fill="#ffffff">
            <path d="M36.25,83.48 C35.1299944,83.2399988 34.1600041,82.6600046 33.34,81.74 C32.5199959,80.8199954 32.11,79.4000096 32.11,77.48 C32.11,74.7999866 32.9199919,71.2000226 34.54,66.68 C36.1600081,62.1599774 38.2899868,57.6200228 40.93,53.06 C38.92999,53.1800006 37.3500058,53.4799976 36.19,53.96 C35.0299942,54.4400024 34.2700018,55.179995 33.91,56.18 C34.0700008,56.18 34.2399991,56.379998 34.42,56.78 C34.6000009,57.180002 34.69,57.5999978 34.69,58.04 C34.69,58.7600036 34.3700032,59.3299979 33.73,59.75 C33.0899968,60.1700021 32.2900048,60.38 31.33,60.38 C30.2099944,60.38 29.3100034,60.080003 28.63,59.48 C27.9499966,58.879997 27.61,58.0200056 27.61,56.9 C27.61,55.5399932 28.1399947,54.3000056 29.2,53.18 C30.2600053,52.0599944 31.7299906,51.1700033 33.61,50.51 C35.4900094,49.8499967 37.5699886,49.52 39.85,49.52 C40.6900042,49.52 41.7299938,49.5799994 42.97,49.7 C46.2500164,44.499974 49.7199817,40.2500165 53.38,36.95 C57.0400183,33.6499835 60.5299834,32 63.85,32 C65.7700096,32 67.3499938,32.2799972 68.59,32.84 L59.17,77 L50.53,77 L55.15,55.22 C53.6699926,54.5399966 52.3100062,54.0400016 51.07,53.72 C49.8299938,53.3999984 48.510007,53.1800006 47.11,53.06 C44.8299886,57.9800246 42.9600073,63.0099743 41.5,68.15 C40.0399927,73.2900257 39.31,77.3999846 39.31,80.48 C39.31,82.0000076 39.5899972,83.1199964 40.15,83.84 C38.6699926,83.84 37.3700056,83.7200012 36.25,83.48 Z M59.17,36.26 C57.4499914,37.1800046 55.6600093,38.8899875 53.8,41.39 C51.9399907,43.8900125 50.1300088,46.9199822 48.37,50.48 C51.2500144,51.0400028 53.68999,51.7399958 55.69,52.58 L59.17,36.26 Z M68.89,75.35 C67.4499928,74.0099933 66.73,72.1200122 66.73,69.68 C66.73,68.479994 66.8699986,67.3400054 67.15,66.26 L73.57,36.2 L82.45,35 L79.57,48.5 C80.6900056,47.8199966 81.6099964,47.3700011 82.33,47.15 C83.0500036,46.9299989 83.7699964,46.82 84.49,46.82 C89.2100236,46.82 91.57,50.2399658 91.57,57.08 C91.57,59.8400138 91.0400053,62.7899843 89.98,65.93 C88.9199947,69.0700157 87.1600123,71.7599888 84.7,74 C82.2399877,76.2400112 79.0500196,77.36 75.13,77.36 C72.4099864,77.36 70.3300072,76.6900067 68.89,75.35 Z M81.97,69.23 C83.0500054,67.6899923 83.9099968,65.7700115 84.55,63.47 C85.1900032,61.1699885 85.51,58.9600106 85.51,56.84 C85.51,55.239992 85.2300028,53.8800056 84.67,52.76 C84.1099972,51.6399944 83.330005,51.08 82.33,51.08 C81.729997,51.08 81.0600037,51.1699991 80.32,51.35 C79.5799963,51.5300009 79.0700014,51.7999982 78.79,52.16 L75.49,67.4 C75.3699994,67.8800024 75.31,68.3399978 75.31,68.78 C75.31,70.6200092 76.3699894,71.54 78.49,71.54 C79.7300062,71.54 80.8899946,70.7700077 81.97,69.23 Z M95.53,74.96 C93.8099914,73.4399924 92.95,71.0400164 92.95,67.76 C92.95,65.0399864 93.5099944,62.0200166 94.63,58.7 C95.7500056,55.3799834 97.5499876,52.5100121 100.03,50.09 C102.510012,47.6699879 105.629981,46.46 109.39,46.46 C114.510026,46.46 117.07,49.659968 117.07,56.06 L117.07,56.12 C117.190001,56.1600002 117.409998,56.18 117.73,56.18 C119.050007,56.18 120.569991,55.8300035 122.29,55.13 C124.010009,54.4299965 125.569993,53.580005 126.97,52.58 L127.51,54.2 C126.349994,55.4400062 124.840009,56.4899957 122.98,57.35 C121.119991,58.2100043 119.090011,58.8199982 116.89,59.18 C116.569998,62.8200182 115.750007,65.9999864 114.43,68.72 C113.109993,71.4400136 111.41001,73.5399926 109.33,75.02 C107.24999,76.5000074 104.990012,77.24 102.55,77.24 C99.5899852,77.24 97.2500086,76.4800076 95.53,74.96 Z M107.83,70.19 C108.790005,69.0899945 109.629996,67.5900095 110.35,65.69 C111.070004,63.7899905 111.589998,61.6800116 111.91,59.36 C110.829995,59.1199988 110.29,58.2800072 110.29,56.84 C110.29,55.1999918 110.909994,54.1200026 112.15,53.6 C112.07,52.2799934 111.870002,51.3700025 111.55,50.87 C111.229998,50.3699975 110.670004,50.12 109.87,50.12 C108.549993,50.12 107.270006,51.0799904 106.03,53 C104.789994,54.9200096 103.790004,57.2199866 103.03,59.9 C102.269996,62.5800134 101.89,64.9399898 101.89,66.98 C101.89,68.9000096 102.109998,70.1899967 102.55,70.85 C102.990002,71.5100033 103.789994,71.84 104.95,71.84 C105.910005,71.84 106.869995,71.2900055 107.83,70.19 Z M121.42,75.56 C120.239994,74.359994 119.65,72.560012 119.65,70.16 C119.65,69.159995 119.809998,67.860008 120.13,66.26 L124.21,47 L132.85,47 L128.53,67.4 C128.409999,68.000003 128.35,68.5599974 128.35,69.08 C128.35,70.7200082 128.949994,71.54 130.15,71.54 C131.270006,71.54 132.229996,71.0700047 133.03,70.13 C133.830004,69.1899953 134.469998,67.9000082 134.95,66.26 L139.03,47 L147.67,47 L143.35,67.4 C143.189999,68.000003 143.11,68.6399966 143.11,69.32 C143.11,70.120004 143.299998,70.6899983 143.68,71.03 C144.060002,71.3700017 144.689996,71.54 145.57,71.54 C146.690006,71.54 147.659996,71.0600048 148.48,70.1 C149.300004,69.1399952 149.949998,67.860008 150.43,66.26 L152.95,66.26 C151.469993,70.5800216 149.640011,73.5099923 147.46,75.05 C145.279989,76.5900077 143.090011,77.36 140.89,77.36 C139.169991,77.36 137.800005,76.8800048 136.78,75.92 C135.759995,74.9599952 135.150001,73.5400094 134.95,71.66 C133.589993,73.860011 132.160008,75.359996 130.66,76.16 C129.159993,76.960004 127.630008,77.36 126.07,77.36 C124.14999,77.36 122.600006,76.760006 121.42,75.56 Z M151.54,75.5 C150.559995,74.2599938 150.07,72.6200102 150.07,70.58 C150.07,69.5399948 150.189999,68.4800054 150.43,67.4 L154.27,49.4 L152.29,49.4 L152.77,47 L154.75,47 L156.55,38.72 L165.43,37.52 C165.069998,39.0400076 164.87,39.9399986 164.83,40.22 C164.549999,41.3400056 164.070003,43.599983 163.39,47 L166.99,47 L166.51,49.4 L162.91,49.4 L159.07,67.4 C158.869999,68.2800044 158.77,68.9799974 158.77,69.5 C158.77,70.9400072 159.469993,71.66 160.87,71.66 C161.590004,71.66 162.109998,71.6000006 162.43,71.48 C161.629996,73.8000116 160.690005,75.359996 159.61,76.16 C158.529995,76.960004 157.350006,77.36 156.07,77.36 C154.02999,77.36 152.520005,76.7400062 151.54,75.5 Z M192.34,74.51 C190.31999,72.5699903 189.31,69.700019 189.31,65.9 C189.31,64.0199906 189.589997,61.9200116 190.15,59.6 L196.27,35.24 C192.829983,36.1600046 190.15001,37.7899883 188.23,40.13 C186.30999,42.4700117 185.35,45.039986 185.35,47.84 C185.35,49.8000098 185.869995,51.6999908 186.91,53.54 C184.629989,53.54 182.860006,52.9800056 181.6,51.86 C180.339994,50.7399944 179.71,49.1600102 179.71,47.12 C179.71,44.519987 180.75999,42.0300119 182.86,39.65 C184.960011,37.2699881 187.749983,35.3600072 191.23,33.92 C194.710017,32.4799928 198.389981,31.76 202.27,31.76 C203.630007,31.76 204.749996,31.859999 205.63,32.06 L198.31,59.78 C197.629997,62.3000126 197.29,64.459991 197.29,66.26 C197.29,70.060019 198.849984,71.96 201.97,71.96 C206.450022,71.96 209.549991,67.8400412 211.27,59.6 L217.27,31.88 L225.73,31.88 L219.91,59.6 C218.629994,65.4800294 216.420016,69.919985 213.28,72.92 C210.139984,75.920015 206.150024,77.42 201.31,77.42 C197.34998,77.42 194.36001,76.4500097 192.34,74.51 Z M224.95,76.25 C223.629993,75.5099963 222.650003,74.5500059 222.01,73.37 C221.369997,72.1899941 221.05,70.9600064 221.05,69.68 C221.05,68.3599934 221.359997,67.2100049 221.98,66.23 C222.600003,65.2499951 223.349996,64.5400022 224.23,64.1 C225.790008,61.299986 227.149994,58.4700143 228.31,55.61 C229.470006,52.7499857 230.569995,49.6600166 231.61,46.34 L240.49,45.14 C240.690001,50.2600256 241.029998,55.7999702 241.51,61.76 C241.710001,64.160012 241.81,65.8999946 241.81,66.98 C241.81,69.4200122 241.190006,71.4199922 239.95,72.98 C238.709994,74.5400078 237.180009,75.6599966 235.36,76.34 C233.539991,77.0200034 231.690009,77.36 229.81,77.36 C227.88999,77.36 226.270007,76.9900037 224.95,76.25 Z M231.61,71.3 C232.610005,70.4199956 233.11,69.0000098 233.11,67.04 C233.11,65.839994 232.990001,64.1600108 232.75,62 C232.349998,57.4399772 232.090001,54.3800078 231.97,52.82 C231.009995,55.9800158 229.390011,59.759978 227.11,64.16 C228.030005,64.6400024 228.49,65.3399954 228.49,66.26 C228.49,67.0200038 228.240003,67.699997 227.74,68.3 C227.239998,68.900003 226.610004,69.2 225.85,69.2 C225.009996,69.2 224.470001,68.9400026 224.23,68.42 C224.23,69.8600072 224.519997,70.9199966 225.1,71.6 C225.680003,72.2800034 226.609994,72.62 227.89,72.62 C229.370007,72.62 230.609995,72.1800044 231.61,71.3 Z" id="About-Us"></path>
        </g>
    </g>
</svg>
