<?xml version="1.0" encoding="UTF-8"?>
<svg width="450px" height="450px" viewBox="0 0 450 450" version="1.1" xmlns="http://www.w3.org/2000/svg" xmlns:xlink="http://www.w3.org/1999/xlink">
    <!-- Generator: Sketch 44.1 (41455) - http://www.bohemiancoding.com/sketch -->
    <title>Mobile</title>
    <desc>Created with Sketch.</desc>
    <defs>
        <linearGradient x1="97.3849455%" y1="42.5255037%" x2="36.1418036%" y2="-14.692875%" id="linearGradient-1">
            <stop stop-color="#001FF5" offset="0%"></stop>
            <stop stop-color="#000000" offset="100%"></stop>
        </linearGradient>
        <linearGradient x1="50%" y1="50%" x2="50%" y2="100%" id="linearGradient-2">
            <stop stop-color="#F11500" stop-opacity="0.21668365" offset="0%"></stop>
            <stop stop-color="#DD0900" offset="100%"></stop>
        </linearGradient>
        <linearGradient x1="50%" y1="50%" x2="50%" y2="100%" id="linearGradient-3">
            <stop stop-color="#0500F1" stop-opacity="0.21668365" offset="0%"></stop>
            <stop stop-color="#DD0900" offset="100%"></stop>
        </linearGradient>
        <linearGradient x1="50%" y1="50%" x2="50%" y2="100%" id="linearGradient-4">
            <stop stop-color="#D4F100" stop-opacity="0.21668365" offset="0%"></stop>
            <stop stop-color="#DD0900" offset="100%"></stop>
        </linearGradient>
        <linearGradient x1="50%" y1="50%" x2="50%" y2="100%" id="linearGradient-5">
            <stop stop-color="#00D2F1" stop-opacity="0.21668365" offset="0%"></stop>
            <stop stop-color="#DD0900" offset="100%"></stop>
        </linearGradient>
        <linearGradient x1="50%" y1="50%" x2="50%" y2="100%" id="linearGradient-6">
            <stop stop-color="#27F100" stop-opacity="0.21668365" offset="0%"></stop>
            <stop stop-color="#DD0900" offset="100%"></stop>
        </linearGradient>
    </defs>
    <g id="Page-1" stroke="none" stroke-width="1" fill="none" fill-rule="evenodd">
        <g id="Mobile">
            <g id="main" transform="translate(-2.000000, 98.000000)">
                <path d="M178.13,2.51 C176.709993,3.0500027 175.610004,3.88499435 174.83,5.015 C174.049996,6.14500565 173.66,7.5299918 173.66,9.17 C173.66,9.9100037 173.729999,10.4249985 173.87,10.715 C174.010001,11.0050015 174.08,11.1699998 174.08,11.21 C172.999995,11.21 172.195003,10.9850023 171.665,10.535 C171.134997,10.0849977 170.87,9.3400052 170.87,8.3 C170.87,7.0199936 171.394995,5.77500605 172.445,4.565 C173.495005,3.35499395 174.839992,2.37500375 176.48,1.625 C178.120008,0.87499625 179.759992,0.5 181.4,0.5 C181.680001,0.5 182.079997,0.5199998 182.6,0.56 L182.87,19.01 L189.17,0.65 L192.98,0.65 L193.25,19.01 L199.55,0.65 L201.65,0.65 L193.31,23 L188.99,23 L188.63,7.73 L182.93,23 L178.61,23 L178.13,2.51 Z M207.695,22.205 C207.124997,21.5549967 206.84,20.7500048 206.84,19.79 C206.84,19.3699979 206.889999,18.8950026 206.99,18.365 C207.090001,17.8349973 207.194999,17.3200025 207.305,16.82 C207.415001,16.3199975 207.49,16.0000007 207.53,15.86 C207.690001,15.1599965 207.839999,14.4700034 207.98,13.79 C208.120001,13.1099966 208.19,12.5600021 208.19,12.14 C208.19,11.1199949 207.830004,10.61 207.11,10.61 C206.589997,10.61 206.130002,10.8649975 205.73,11.375 C205.329998,11.8850025 205.010001,12.5499959 204.77,13.37 L202.73,23 L198.41,23 L202.76,2.6 L207.2,2 L205.58,9.56 C206.580005,8.4399944 207.749993,7.88 209.09,7.88 C210.110005,7.88 210.919997,8.1599972 211.52,8.72 C212.120003,9.2800028 212.42,10.1299943 212.42,11.27 C212.42,11.8500029 212.350001,12.4949965 212.21,13.205 C212.069999,13.9150035 211.870001,14.7799949 211.61,15.8 C211.449999,16.4200031 211.305001,17.024997 211.175,17.615 C211.044999,18.2050029 210.98,18.6699983 210.98,19.01 C210.98,19.410002 211.069999,19.7199989 211.25,19.94 C211.430001,20.1600011 211.739998,20.27 212.18,20.27 C212.780003,20.27 213.259998,20.0550021 213.62,19.625 C213.980002,19.1949979 214.339998,18.5300045 214.7,17.63 L215.96,17.63 C215.219996,19.830011 214.365005,21.3049962 213.395,22.055 C212.424995,22.8050038 211.420005,23.18 210.38,23.18 C209.159994,23.18 208.265003,22.8550033 207.695,22.205 Z M215.45,22.01 C214.689996,21.2299961 214.31,20.0100083 214.31,18.35 C214.31,16.8699926 214.604997,15.3150081 215.195,13.685 C215.785003,12.0549918 216.664994,10.6750057 217.835,9.545 C219.005006,8.41499435 220.399992,7.85 222.02,7.85 C222.840004,7.85 223.449998,7.9899986 223.85,8.27 C224.250002,8.5500014 224.45,8.9199977 224.45,9.38 L224.45,9.59 L224.78,8 L229.1,8 L226.94,18.2 C226.86,18.5000015 226.82,18.8199983 226.82,19.16 C226.82,20.0200043 227.229996,20.45 228.05,20.45 C228.610003,20.45 229.094998,20.1900026 229.505,19.67 C229.915002,19.1499974 230.239999,18.4700042 230.48,17.63 L231.74,17.63 C230.999996,19.7900108 230.085005,21.2549962 228.995,22.025 C227.904995,22.7950039 226.810005,23.18 225.71,23.18 C224.869996,23.18 224.195003,22.9450024 223.685,22.475 C223.174997,22.0049976 222.870001,21.3200045 222.77,20.42 C222.189997,21.2400041 221.545004,21.9049974 220.835,22.415 C220.124996,22.9250026 219.280005,23.18 218.3,23.18 C217.159994,23.18 216.210004,22.7900039 215.45,22.01 Z M221.735,19.565 C222.225002,19.0949976 222.559999,18.4500041 222.74,17.63 L224.18,10.85 C224.18,10.5899987 224.080001,10.3350013 223.88,10.085 C223.679999,9.83499875 223.370002,9.71 222.95,9.71 C222.149996,9.71 221.430003,10.1749954 220.79,11.105 C220.149997,12.0350046 219.650002,13.1549935 219.29,14.465 C218.929998,15.7750066 218.75,16.929995 218.75,17.93 C218.75,18.930005 218.894999,19.5699986 219.185,19.85 C219.475001,20.1300014 219.829998,20.27 220.25,20.27 C220.750002,20.27 221.244998,20.0350023 221.735,19.565 Z M231.035,22.25 C230.544998,21.6299969 230.3,20.8100051 230.3,19.79 C230.3,19.2699974 230.359999,18.7400027 230.48,18.2 L232.4,9.2 L231.41,9.2 L231.65,8 L232.64,8 L233.54,3.86 L237.98,3.26 C237.799999,4.0200038 237.7,4.4699993 237.68,4.61 C237.539999,5.1700028 237.300002,6.2999915 236.96,8 L238.76,8 L238.52,9.2 L236.72,9.2 L234.8,18.2 C234.7,18.6400022 234.65,18.9899987 234.65,19.25 C234.65,19.9700036 234.999997,20.33 235.7,20.33 C236.060002,20.33 236.319999,20.3000003 236.48,20.24 C236.079998,21.4000058 235.610003,22.179998 235.07,22.58 C234.529997,22.980002 233.940003,23.18 233.3,23.18 C232.279995,23.18 231.525002,22.8700031 231.035,22.25 Z M246.02,22.01 C245.259996,21.2299961 244.88,20.0100083 244.88,18.35 C244.88,16.8699926 245.174997,15.3150081 245.765,13.685 C246.355003,12.0549918 247.234994,10.6750057 248.405,9.545 C249.575006,8.41499435 250.969992,7.85 252.59,7.85 C253.410004,7.85 254.019998,7.9899986 254.42,8.27 C254.820002,8.5500014 255.02,8.9199977 255.02,9.38 L255.02,9.59 L255.35,8 L259.67,8 L257.51,18.2 C257.43,18.5000015 257.39,18.8199983 257.39,19.16 C257.39,20.0200043 257.799996,20.45 258.62,20.45 C259.180003,20.45 259.664998,20.1900026 260.075,19.67 C260.485002,19.1499974 260.809999,18.4700042 261.05,17.63 L262.31,17.63 C261.569996,19.7900108 260.655005,21.2549962 259.565,22.025 C258.474995,22.7950039 257.380006,23.18 256.28,23.18 C255.439996,23.18 254.765003,22.9450024 254.255,22.475 C253.744997,22.0049976 253.44,21.3200045 253.34,20.42 C252.759997,21.2400041 252.115004,21.9049974 251.405,22.415 C250.694996,22.9250026 249.850005,23.18 248.87,23.18 C247.729994,23.18 246.780004,22.7900039 246.02,22.01 Z M252.305,19.565 C252.795002,19.0949976 253.129999,18.4500041 253.31,17.63 L254.75,10.85 C254.75,10.5899987 254.650001,10.3350013 254.45,10.085 C254.249999,9.83499875 253.940002,9.71 253.52,9.71 C252.719996,9.71 252.000003,10.1749954 251.36,11.105 C250.719997,12.0350046 250.220002,13.1549935 249.86,14.465 C249.499998,15.7750066 249.32,16.929995 249.32,17.93 C249.32,18.930005 249.464999,19.5699986 249.755,19.85 C250.045001,20.1300014 250.399998,20.27 250.82,20.27 C251.320002,20.27 251.814998,20.0350023 252.305,19.565 Z M263.09,8 L267.41,8 L267.02,9.86 C267.700003,9.259997 268.314997,8.8000016 268.865,8.48 C269.415003,8.1599984 270.009997,8 270.65,8 C271.290003,8 271.794998,8.2199978 272.165,8.66 C272.535002,9.1000022 272.72,9.6299969 272.72,10.25 C272.72,10.8300029 272.530002,11.3399978 272.15,11.78 C271.769998,12.2200022 271.240003,12.44 270.56,12.44 C270.119998,12.44 269.825001,12.335001 269.675,12.125 C269.524999,11.9149989 269.41,11.610002 269.33,11.21 C269.27,10.9499987 269.21,10.7600006 269.15,10.64 C269.09,10.5199994 268.980001,10.46 268.82,10.46 C268.399998,10.46 268.045001,10.5449991 267.755,10.715 C267.464999,10.8850008 267.090002,11.1799979 266.63,11.6 L264.23,23 L259.91,23 L263.09,8 Z M273.14,22.025 C272.319996,21.2549962 271.91,20.0500082 271.91,18.41 C271.91,17.0299931 272.179997,15.5100083 272.72,13.85 C273.260003,12.1899917 274.139994,10.755006 275.36,9.545 C276.580006,8.33499395 278.129991,7.73 280.01,7.73 C282.210011,7.73 283.31,8.6899904 283.31,10.61 C283.31,11.7300056 282.990003,12.7599953 282.35,13.7 C281.709997,14.6400047 280.860005,15.3949971 279.8,15.965 C278.739995,16.5350028 277.610006,16.8599996 276.41,16.94 C276.37,17.3800022 276.35,17.6799992 276.35,17.84 C276.35,19.5000083 276.969994,20.33 278.21,20.33 C278.770003,20.33 279.369997,20.1800015 280.01,19.88 C280.650003,19.5799985 281.229997,19.2000023 281.75,18.74 C281.209997,21.7000148 279.480015,23.18 276.56,23.18 C275.099993,23.18 273.960004,22.7950039 273.14,22.025 Z M278.765,14.75 C279.435003,14.2699976 279.974998,13.6550038 280.385,12.905 C280.795002,12.1549963 281,11.3700041 281,10.55 C281,9.7299959 280.750002,9.32 280.25,9.32 C279.549997,9.32 278.855003,9.95499365 278.165,11.225 C277.474997,12.4950063 276.960002,13.9199921 276.62,15.5 C277.380004,15.4799999 278.094997,15.2300024 278.765,14.75 Z M161.54,67.75 C160.899997,67.2499975 160.58,66.5300047 160.58,65.59 C160.58,64.4499943 161.039995,63.5350035 161.96,62.845 C162.880005,62.1549965 164.049993,61.5800023 165.47,61.12 L165.83,59.5 C165.249997,60.1400032 164.660003,60.5799988 164.06,60.82 C163.459997,61.0600012 162.850003,61.18 162.23,61.18 C161.269995,61.18 160.495003,60.880003 159.905,60.28 C159.314997,59.679997 159.02,58.780006 159.02,57.58 C159.02,57.0799975 159.099999,56.430004 159.26,55.63 L161.3,46 L165.62,46 L163.46,56.2 C163.4,56.4400012 163.37,56.6899987 163.37,56.95 C163.37,57.8300044 163.669997,58.27 164.27,58.27 C164.790003,58.27 165.249998,58.0450023 165.65,57.595 C166.050002,57.1449978 166.369999,56.5500037 166.61,55.81 L168.71,46 L173.03,46 L170.06,59.92 C171.020005,59.5999984 171.789997,59.1200032 172.37,58.48 C172.950003,57.8399968 173.439998,56.8900063 173.84,55.63 L175.1,55.63 C174.559997,57.4100089 173.830005,58.7149958 172.91,59.545 C171.989995,60.3750041 170.950006,60.9399985 169.79,61.24 L169.34,63.4 C168.939998,65.3400097 168.250005,66.6749964 167.27,67.405 C166.289995,68.1350037 165.180006,68.5 163.94,68.5 C162.979995,68.5 162.180003,68.2500025 161.54,67.75 Z M164.24,65.47 C164.560002,65.0099977 164.809999,64.3500043 164.99,63.49 L165.17,62.62 C163.20999,63.3400036 162.23,64.1899951 162.23,65.17 C162.23,65.4300013 162.319999,65.659999 162.5,65.86 C162.680001,66.060001 162.929998,66.16 163.25,66.16 C163.590002,66.16 163.919998,65.9300023 164.24,65.47 Z M174.71,59.98 C173.849996,59.2199962 173.42,58.0200082 173.42,56.38 C173.42,55.0199932 173.699997,53.5100083 174.26,51.85 C174.820003,50.1899917 175.719994,48.755006 176.96,47.545 C178.200006,46.3349939 179.759991,45.73 181.64,45.73 C184.200013,45.73 185.48,47.329984 185.48,50.53 L185.48,50.56 C185.54,50.5800001 185.649999,50.59 185.81,50.59 C186.470003,50.59 187.229996,50.4150017 188.09,50.065 C188.950004,49.7149982 189.729996,49.2900025 190.43,48.79 L190.7,49.6 C190.119997,50.2200031 189.365005,50.7449978 188.435,51.175 C187.504995,51.6050021 186.490005,51.9099991 185.39,52.09 C185.229999,53.9100091 184.820003,55.4999932 184.16,56.86 C183.499997,58.2200068 182.650005,59.2699963 181.61,60.01 C180.569995,60.7500037 179.440006,61.12 178.22,61.12 C176.739993,61.12 175.570004,60.7400038 174.71,59.98 Z M180.86,57.595 C181.340002,57.0449972 181.759998,56.2950048 182.12,55.345 C182.480002,54.3949953 182.739999,53.3400058 182.9,52.18 C182.359997,52.0599994 182.09,51.6400036 182.09,50.92 C182.09,50.0999959 182.399997,49.5600013 183.02,49.3 C182.98,48.6399967 182.880001,48.1850012 182.72,47.935 C182.559999,47.6849987 182.280002,47.56 181.88,47.56 C181.219997,47.56 180.580003,48.0399952 179.96,49 C179.339997,49.9600048 178.840002,51.1099933 178.46,52.45 C178.079998,53.7900067 177.89,54.9699949 177.89,55.99 C177.89,56.9500048 177.999999,57.5949983 178.22,57.925 C178.440001,58.2550016 178.839997,58.42 179.42,58.42 C179.900002,58.42 180.379998,58.1450028 180.86,57.595 Z M187.655,60.28 C187.064997,59.679997 186.77,58.780006 186.77,57.58 C186.77,57.0799975 186.849999,56.430004 187.01,55.63 L189.05,46 L193.37,46 L191.21,56.2 C191.15,56.4400012 191.12,56.6899987 191.12,56.95 C191.12,57.8300044 191.419997,58.27 192.02,58.27 C192.580003,58.27 193.059998,58.0350023 193.46,57.565 C193.860002,57.0949976 194.179999,56.4500041 194.42,55.63 L196.46,46 L200.78,46 L198.62,56.2 C198.54,56.5000015 198.5,56.8199983 198.5,57.16 C198.5,57.560002 198.594999,57.8449991 198.785,58.015 C198.975001,58.1850009 199.289998,58.27 199.73,58.27 C200.050002,58.27 200.284999,58.2450003 200.435,58.195 C200.585001,58.1449997 200.68,58.1100001 200.72,58.09 C200.64,59.1100051 200.290003,59.8799974 199.67,60.4 C199.049997,60.9200026 198.290005,61.18 197.39,61.18 C196.549996,61.18 195.875003,60.9300025 195.365,60.43 C194.854997,59.9299975 194.550001,59.2300045 194.45,58.33 C193.769997,59.4300055 193.055004,60.179998 192.305,60.58 C191.554996,60.980002 190.780004,61.18 189.98,61.18 C189.019995,61.18 188.245003,60.880003 187.655,60.28 Z M207.935,60.28 C207.344997,59.679997 207.05,58.780006 207.05,57.58 C207.05,57.0799975 207.129999,56.430004 207.29,55.63 L210.5,40.6 L214.94,40 L211.49,56.2 C211.41,56.5000015 211.37,56.8199983 211.37,57.16 C211.37,57.560002 211.464999,57.8449991 211.655,58.015 C211.845001,58.1850009 212.159998,58.27 212.6,58.27 C213.180003,58.27 213.719997,58.0250025 214.22,57.535 C214.720002,57.0449976 215.079999,56.4100039 215.3,55.63 L216.56,55.63 C215.819996,57.7900108 214.870006,59.2549961 213.71,60.025 C212.549994,60.7950039 211.400006,61.18 210.26,61.18 C209.299995,61.18 208.525003,60.880003 207.935,60.28 Z M216.17,59.98 C215.309996,59.2199962 214.88,58.0200082 214.88,56.38 C214.88,55.0199932 215.159997,53.5100083 215.72,51.85 C216.280003,50.1899917 217.179994,48.755006 218.42,47.545 C219.660006,46.3349939 221.219991,45.73 223.1,45.73 C225.660013,45.73 226.94,47.329984 226.94,50.53 L226.94,50.56 C227,50.5800001 227.109999,50.59 227.27,50.59 C227.930003,50.59 228.689996,50.4150017 229.55,50.065 C230.410004,49.7149982 231.189996,49.2900025 231.89,48.79 L232.16,49.6 C231.579997,50.2200031 230.825005,50.7449978 229.895,51.175 C228.964995,51.6050021 227.950005,51.9099991 226.85,52.09 C226.689999,53.9100091 226.280003,55.4999932 225.62,56.86 C224.959997,58.2200068 224.110005,59.2699963 223.07,60.01 C222.029995,60.7500037 220.900006,61.12 219.68,61.12 C218.199993,61.12 217.030004,60.7400038 216.17,59.98 Z M222.32,57.595 C222.800002,57.0449972 223.219998,56.2950048 223.58,55.345 C223.940002,54.3949953 224.199999,53.3400058 224.36,52.18 C223.819997,52.0599994 223.55,51.6400036 223.55,50.92 C223.55,50.0999959 223.859997,49.5600013 224.48,49.3 C224.44,48.6399967 224.340001,48.1850012 224.18,47.935 C224.019999,47.6849987 223.740002,47.56 223.34,47.56 C222.679997,47.56 222.040003,48.0399952 221.42,49 C220.799997,49.9600048 220.300002,51.1099933 219.92,52.45 C219.539998,53.7900067 219.35,54.9699949 219.35,55.99 C219.35,56.9500048 219.459999,57.5949983 219.68,57.925 C219.900001,58.2550016 220.299997,58.42 220.88,58.42 C221.360002,58.42 221.839998,58.1450028 222.32,57.595 Z M229.34,59.98 C228.479996,59.2199962 228.05,58.0200082 228.05,56.38 C228.05,55.0199932 228.329997,53.5100083 228.89,51.85 C229.450003,50.1899917 230.349994,48.755006 231.59,47.545 C232.830006,46.3349939 234.389991,45.73 236.27,45.73 C238.830013,45.73 240.11,47.329984 240.11,50.53 L240.11,50.56 C240.17,50.5800001 240.279999,50.59 240.44,50.59 C241.100003,50.59 241.859996,50.4150017 242.72,50.065 C243.580004,49.7149982 244.359996,49.2900025 245.06,48.79 L245.33,49.6 C244.749997,50.2200031 243.995005,50.7449978 243.065,51.175 C242.134995,51.6050021 241.120005,51.9099991 240.02,52.09 C239.859999,53.9100091 239.450003,55.4999932 238.79,56.86 C238.129997,58.2200068 237.280005,59.2699963 236.24,60.01 C235.199995,60.7500037 234.070006,61.12 232.85,61.12 C231.369993,61.12 230.200004,60.7400038 229.34,59.98 Z M235.49,57.595 C235.970002,57.0449972 236.389998,56.2950048 236.75,55.345 C237.110002,54.3949953 237.369999,53.3400058 237.53,52.18 C236.989997,52.0599994 236.72,51.6400036 236.72,50.92 C236.72,50.0999959 237.029997,49.5600013 237.65,49.3 C237.61,48.6399967 237.510001,48.1850012 237.35,47.935 C237.189999,47.6849987 236.910002,47.56 236.51,47.56 C235.849997,47.56 235.210003,48.0399952 234.59,49 C233.969997,49.9600048 233.470002,51.1099933 233.09,52.45 C232.709998,53.7900067 232.52,54.9699949 232.52,55.99 C232.52,56.9500048 232.629999,57.5949983 232.85,57.925 C233.070001,58.2550016 233.469997,58.42 234.05,58.42 C234.530002,58.42 235.009998,58.1450028 235.49,57.595 Z M250.1,60.295 C249.459997,59.7049971 249.14,58.8600055 249.14,57.76 C249.14,57.2799976 249.199999,56.7600028 249.32,56.2 L249.56,55.03 C249.64,54.6899983 249.68,54.320002 249.68,53.92 C249.68,52.9599952 249.320004,52.48 248.6,52.48 C248.279998,52.48 247.945002,52.5699991 247.595,52.75 C247.244998,52.9300009 246.840002,53.2099981 246.38,53.59 L244.82,61 L240.5,61 L244.85,40.6 L249.29,40 L247.04,50.56 L252.83,46 L255.8,46 L249.8,50.17 C250.100001,50.0899996 250.429998,50.05 250.79,50.05 C251.870005,50.05 252.689997,50.3799967 253.25,51.04 C253.810003,51.7000033 254.09,52.5399949 254.09,53.56 C254.09,53.9800021 254.05,54.3599983 253.97,54.7 L253.64,56.2 C253.539999,56.5600018 253.49,56.8799986 253.49,57.16 C253.49,57.9000037 253.879996,58.27 254.66,58.27 C255.260003,58.27 255.739998,58.0550022 256.1,57.625 C256.460002,57.1949979 256.819998,56.5300045 257.18,55.63 L258.44,55.63 C257.199994,59.3300185 255.360012,61.18 252.92,61.18 C251.679994,61.18 250.740003,60.885003 250.1,60.295 Z M260.51,43.69 C260.049998,43.2299977 259.82,42.6700033 259.82,42.01 C259.82,41.3499967 260.049998,40.7850023 260.51,40.315 C260.970002,39.8449976 261.529997,39.61 262.19,39.61 C262.850003,39.61 263.414998,39.8449976 263.885,40.315 C264.355002,40.7850023 264.59,41.3499967 264.59,42.01 C264.59,42.6700033 264.355002,43.2299977 263.885,43.69 C263.414998,44.1500023 262.850003,44.38 262.19,44.38 C261.529997,44.38 260.970002,44.1500023 260.51,43.69 Z M257.825,60.28 C257.234997,59.679997 256.94,58.780006 256.94,57.58 C256.94,57.0799975 257.019999,56.430004 257.18,55.63 L259.22,46 L263.54,46 L261.38,56.2 C261.3,56.5000015 261.26,56.8199983 261.26,57.16 C261.26,57.560002 261.354999,57.8449991 261.545,58.015 C261.735001,58.1850009 262.049998,58.27 262.49,58.27 C263.070003,58.27 263.609997,58.0250025 264.11,57.535 C264.610002,57.0449976 264.969999,56.4100039 265.19,55.63 L266.45,55.63 C265.709996,57.7900108 264.760006,59.2549961 263.6,60.025 C262.439994,60.7950039 261.290006,61.18 260.15,61.18 C259.189995,61.18 258.415003,60.880003 257.825,60.28 Z M273.335,60.205 C272.764997,59.5549967 272.48,58.7500048 272.48,57.79 C272.48,57.3699979 272.529999,56.8950026 272.63,56.365 C272.73,55.8349974 272.834999,55.3200025 272.945,54.82 C273.055001,54.3199975 273.13,54.0000007 273.17,53.86 C273.330001,53.1599965 273.479999,52.4700034 273.62,51.79 C273.760001,51.1099966 273.83,50.5600021 273.83,50.14 C273.83,49.1199949 273.470004,48.61 272.75,48.61 C272.229997,48.61 271.770002,48.8649975 271.37,49.375 C270.969998,49.8850025 270.650001,50.5499959 270.41,51.37 L268.37,61 L264.05,61 L267.23,46 L271.55,46 L271.22,47.56 C272.220005,46.4399944 273.389993,45.88 274.73,45.88 C275.750005,45.88 276.559997,46.1599972 277.16,46.72 C277.760003,47.2800028 278.06,48.1299943 278.06,49.27 C278.06,49.8500029 277.990001,50.4949965 277.85,51.205 C277.709999,51.9150035 277.510001,52.7799949 277.25,53.8 C277.089999,54.4200031 276.945001,55.0249971 276.815,55.615 C276.684999,56.205003 276.62,56.6699983 276.62,57.01 C276.62,57.410002 276.709999,57.7199989 276.89,57.94 C277.070001,58.1600011 277.379998,58.27 277.82,58.27 C278.420003,58.27 278.899998,58.0550022 279.26,57.625 C279.620002,57.1949979 279.979998,56.5300045 280.34,55.63 L281.6,55.63 C280.859996,57.830011 280.005005,59.3049963 279.035,60.055 C278.064995,60.8050037 277.060005,61.18 276.02,61.18 C274.799994,61.18 273.905003,60.8550032 273.335,60.205 Z M283.145,67.585 C282.434996,66.9749969 282.08,66.2000047 282.08,65.26 C282.08,64.3799956 282.299998,63.6600028 282.74,63.1 C283.180002,62.5399972 283.749996,62.1000016 284.45,61.78 C285.150003,61.4599984 286.089994,61.1200018 287.27,60.76 L287.54,59.5 C286.499995,60.6200056 285.300007,61.18 283.94,61.18 C282.799994,61.18 281.850004,60.7900039 281.09,60.01 C280.329996,59.2299961 279.95,58.0100083 279.95,56.35 C279.95,54.8699926 280.244997,53.3150081 280.835,51.685 C281.425003,50.0549918 282.304994,48.6750056 283.475,47.545 C284.645006,46.4149943 286.039992,45.85 287.66,45.85 C288.480004,45.85 289.089998,45.9899986 289.49,46.27 C289.890002,46.5500014 290.09,46.9199977 290.09,47.38 L290.09,47.44 L290.39,46 L294.74,46 L291.08,63.4 C290.679998,65.3200096 289.975005,66.6499963 288.965,67.39 C287.954995,68.1300037 286.840006,68.5 285.62,68.5 C284.679995,68.5 283.855004,68.195003 283.145,67.585 Z M287.285,57.685 C287.755002,57.2949981 288.089999,56.7400036 288.29,56.02 L289.82,48.76 C289.659999,48.0599965 289.250003,47.71 288.59,47.71 C287.789996,47.71 287.070003,48.1749954 286.43,49.105 C285.789997,50.0350047 285.290002,51.1549935 284.93,52.465 C284.569998,53.7750066 284.39,54.929995 284.39,55.93 C284.39,56.930005 284.534999,57.5699986 284.825,57.85 C285.115001,58.1300014 285.469998,58.27 285.89,58.27 C286.350002,58.27 286.814998,58.075002 287.285,57.685 Z M285.95,65.275 C286.270002,64.9049981 286.519999,64.3100041 286.7,63.49 L287.06,61.72 C285.999995,62.0800018 285.180003,62.4999976 284.6,62.98 C284.019997,63.4600024 283.73,64.0799962 283.73,64.84 C283.73,65.0800012 283.849999,65.3049989 284.09,65.515 C284.330001,65.7250011 284.609998,65.83 284.93,65.83 C285.290002,65.83 285.629998,65.6450018 285.95,65.275 Z M198.98,105.585 C198.269996,104.974997 197.915,104.200005 197.915,103.26 C197.915,102.399996 198.134998,101.690003 198.575,101.13 C199.015002,100.569997 199.584996,100.125002 200.285,99.795 C200.985004,99.4649984 201.914994,99.1200018 203.075,98.76 L206.705,81.63 C207.105002,79.7099904 207.809995,78.3800037 208.82,77.64 C209.830005,76.8999963 210.944994,76.53 212.165,76.53 C213.105005,76.53 213.929996,76.834997 214.64,77.445 C215.350004,78.055003 215.705,78.8299953 215.705,79.77 C215.705,80.2300023 215.675,80.6399982 215.615,81 L214.205,81 C214.245,80.5599978 214.265,80.2900005 214.265,80.19 C214.265,79.8699984 214.155001,79.6200009 213.935,79.44 C213.714999,79.2599991 213.445002,79.17 213.125,79.17 C212.704998,79.17 212.295002,79.3549982 211.895,79.725 C211.494998,80.0950019 211.205001,80.7299955 211.025,81.63 L210.515,84 L212.705,84 L212.495,85.2 L210.275,85.2 L206.825,101.4 C206.424998,103.34001 205.735005,104.674996 204.755,105.405 C203.774995,106.135004 202.675006,106.5 201.455,106.5 C200.514995,106.5 199.690004,106.195003 198.98,105.585 Z M202.475,101.49 L202.865,99.75 C201.804995,100.110002 200.990003,100.524998 200.42,100.995 C199.849997,101.465002 199.565,102.079996 199.565,102.84 C199.565,103.080001 199.684999,103.304999 199.925,103.515 C200.165001,103.725001 200.444998,103.83 200.765,103.83 C201.565004,103.83 202.134998,103.050008 202.475,101.49 Z M213.035,97.98 C212.174996,97.2199962 211.745,96.0200082 211.745,94.38 C211.745,93.0199932 212.024997,91.5100083 212.585,89.85 C213.145003,88.1899917 214.044994,86.7550061 215.285,85.545 C216.525006,84.334994 218.084991,83.73 219.965,83.73 C222.525013,83.73 223.805,85.329984 223.805,88.53 L223.805,88.56 C223.865,88.5800001 223.974999,88.59 224.135,88.59 C224.795003,88.59 225.554996,88.4150018 226.415,88.065 C227.275004,87.7149983 228.054997,87.2900025 228.755,86.79 L229.025,87.6 C228.444997,88.2200031 227.690005,88.7449979 226.76,89.175 C225.829995,89.6050022 224.815005,89.9099991 223.715,90.09 C223.554999,91.9100091 223.145003,93.4999932 222.485,94.86 C221.824997,96.2200068 220.975005,97.2699963 219.935,98.01 C218.894995,98.7500037 217.765006,99.12 216.545,99.12 C215.064993,99.12 213.895004,98.7400038 213.035,97.98 Z M219.185,95.595 C219.665002,95.0449972 220.084998,94.2950048 220.445,93.345 C220.805002,92.3949952 221.064999,91.3400058 221.225,90.18 C220.684997,90.0599994 220.415,89.6400036 220.415,88.92 C220.415,88.0999959 220.724997,87.5600013 221.345,87.3 C221.305,86.6399967 221.205001,86.1850012 221.045,85.935 C220.884999,85.6849988 220.605002,85.56 220.205,85.56 C219.544997,85.56 218.905003,86.0399952 218.285,87 C217.664997,87.9600048 217.165002,89.1099933 216.785,90.45 C216.404998,91.7900067 216.215,92.9699949 216.215,93.99 C216.215,94.9500048 216.324999,95.5949983 216.545,95.925 C216.765001,96.2550016 217.164997,96.42 217.745,96.42 C218.225002,96.42 218.704998,96.1450028 219.185,95.595 Z M227.375,84 L231.695,84 L231.305,85.86 C231.985003,85.259997 232.599997,84.8000016 233.15,84.48 C233.700003,84.1599984 234.294997,84 234.935,84 C235.575003,84 236.079998,84.2199978 236.45,84.66 C236.820002,85.1000022 237.005,85.6299969 237.005,86.25 C237.005,86.8300029 236.815002,87.3399978 236.435,87.78 C236.054998,88.2200022 235.525003,88.44 234.845,88.44 C234.404998,88.44 234.110001,88.3350011 233.96,88.125 C233.809999,87.9149989 233.695,87.610002 233.615,87.21 C233.555,86.9499987 233.495,86.7600006 233.435,86.64 C233.375,86.5199994 233.265001,86.46 233.105,86.46 C232.684998,86.46 232.330001,86.5449991 232.04,86.715 C231.749999,86.8850008 231.375002,87.1799979 230.915,87.6 L228.515,99 L224.195,99 L227.375,84 Z M240.2,89.445 C240.490001,88.6749961 240.839998,88.0100028 241.25,87.45 C241.660002,86.8899972 242.194997,86.2400037 242.855,85.5 C243.715004,84.5399952 244.359998,83.6950037 244.79,82.965 C245.220002,82.2349964 245.435,81.3800049 245.435,80.4 C245.435,79.5399957 245.265002,78.8700024 244.925,78.39 C244.584998,77.9099976 244.095003,77.67 243.455,77.67 C242.794997,77.67 242.240002,77.9049976 241.79,78.375 C241.339998,78.8450024 241.115,79.4299965 241.115,80.13 C241.115,80.6500026 241.244999,81.1249978 241.505,81.555 C241.765001,81.9850021 242.114998,82.299999 242.555,82.5 L242.555,82.62 C242.194998,82.9400016 241.820002,83.1899991 241.43,83.37 C241.039998,83.5500009 240.665002,83.64 240.305,83.64 C239.664997,83.64 239.140002,83.4050024 238.73,82.935 C238.319998,82.4649977 238.115,81.8600037 238.115,81.12 C238.115,80.1799953 238.389997,79.3300038 238.94,78.57 C239.490003,77.8099962 240.234995,77.2100022 241.175,76.77 C242.115005,76.3299978 243.164994,76.11 244.325,76.11 C245.945008,76.11 247.224995,76.4799963 248.165,77.22 C249.105005,77.9600037 249.575,78.9699936 249.575,80.25 C249.575,81.0300039 249.405002,81.7449967 249.065,82.395 C248.724998,83.0450033 248.300003,83.6199975 247.79,84.12 C247.279997,84.6200025 246.605004,85.2099966 245.765,85.89 C244.864995,86.6500038 244.155003,87.2899974 243.635,87.81 C243.114997,88.3300026 242.670002,88.9449965 242.3,89.655 C241.929998,90.3650035 241.745,91.1599956 241.745,92.04 L239.765,92.04 C239.765,91.0799952 239.909999,90.2150039 240.2,89.445 Z M238.715,98.295 C238.234998,97.8249977 237.995,97.2600033 237.995,96.6 C237.995,95.9399967 238.229998,95.3800023 238.7,94.92 C239.170002,94.4599977 239.734997,94.23 240.395,94.23 C241.055003,94.23 241.619998,94.4599977 242.09,94.92 C242.560002,95.3800023 242.795,95.9399967 242.795,96.6 C242.795,97.2600033 242.560002,97.8249977 242.09,98.295 C241.619998,98.7650024 241.055003,99 240.395,99 C239.754997,99 239.195002,98.7650024 238.715,98.295 Z" id="What-are-you-looking" fill="#DD0900" stroke="#001FF5"></path>
                <path d="M9.44,233.6 C8.0999933,234.160003 7.06500365,234.999994 6.335,236.12 C5.60499635,237.240006 5.24,238.589992 5.24,240.17 C5.24,240.910004 5.3099993,241.424999 5.45,241.715 C5.5900007,242.005001 5.66,242.17 5.66,242.21 C4.5799946,242.21 3.77500265,241.985002 3.245,241.535 C2.71499735,241.084998 2.45,240.340005 2.45,239.3 C2.45,238.019994 2.97499475,236.775006 4.025,235.565 C5.07500525,234.354994 6.4199918,233.375004 8.06,232.625 C9.7000082,231.874996 11.3399918,231.5 12.98,231.5 C13.2600014,231.5 13.6599974,231.52 14.18,231.56 L12.26,240.5 L16.67,240.5 L18.59,231.56 L22.91,231.56 L18.14,254 L13.82,254 L16.22,242.72 L11.81,242.72 L9.41,254 L5.09,254 L9.44,233.6 Z M22.88,253.025 C22.0599959,252.254996 21.65,251.050008 21.65,249.41 C21.65,248.029993 21.9199973,246.510008 22.46,244.85 C23.0000027,243.189992 23.8799939,241.755006 25.1,240.545 C26.3200061,239.334994 27.8699906,238.73 29.75,238.73 C31.950011,238.73 33.05,239.68999 33.05,241.61 C33.05,242.730006 32.7300032,243.759995 32.09,244.7 C31.4499968,245.640005 30.6000053,246.394997 29.54,246.965 C28.4799947,247.535003 27.350006,247.86 26.15,247.94 C26.1099998,248.540003 26.09,248.939999 26.09,249.14 C26.09,250.120005 26.2599983,250.784998 26.6,251.135 C26.9400017,251.485002 27.4899962,251.66 28.25,251.66 C29.3300054,251.66 30.2549962,251.410002 31.025,250.91 C31.7950039,250.409998 32.6399954,249.650005 33.56,248.63 L34.58,248.63 C32.3599889,252.330018 29.6100164,254.18 26.33,254.18 C24.8499926,254.18 23.7000041,253.795004 22.88,253.025 Z M28.505,245.72 C29.1750034,245.239998 29.714998,244.630004 30.125,243.89 C30.5350021,243.149996 30.74,242.370004 30.74,241.55 C30.74,240.729996 30.4900025,240.32 29.99,240.32 C29.2699964,240.32 28.5650035,240.949994 27.875,242.21 C27.1849966,243.470006 26.6900015,244.899992 26.39,246.5 C27.1300037,246.46 27.8349967,246.200002 28.505,245.72 Z M34.31,253.01 C33.5499962,252.229996 33.17,251.010008 33.17,249.35 C33.17,247.869993 33.4649971,246.315008 34.055,244.685 C34.6450029,243.054992 35.5249941,241.675006 36.695,240.545 C37.8650059,239.414994 39.2599919,238.85 40.88,238.85 C41.7000041,238.85 42.309998,238.989999 42.71,239.27 C43.110002,239.550001 43.31,239.919998 43.31,240.38 L43.31,240.59 L43.64,239 L47.96,239 L45.8,249.2 C45.7199996,249.500001 45.68,249.819998 45.68,250.16 C45.68,251.020004 46.0899959,251.45 46.91,251.45 C47.4700028,251.45 47.954998,251.190003 48.365,250.67 C48.7750021,250.149997 49.0999988,249.470004 49.34,248.63 L50.6,248.63 C49.8599963,250.790011 48.9450054,252.254996 47.855,253.025 C46.7649945,253.795004 45.6700055,254.18 44.57,254.18 C43.7299958,254.18 43.0550026,253.945002 42.545,253.475 C42.0349975,253.004998 41.7300005,252.320005 41.63,251.42 C41.0499971,252.240004 40.4050036,252.904997 39.695,253.415 C38.9849964,253.925003 38.1400049,254.18 37.16,254.18 C36.0199943,254.18 35.0700038,253.790004 34.31,253.01 Z M40.595,250.565 C41.0850025,250.094998 41.4199991,249.450004 41.6,248.63 L43.04,241.85 C43.04,241.589999 42.940001,241.335001 42.74,241.085 C42.539999,240.834999 42.2300021,240.71 41.81,240.71 C41.009996,240.71 40.2900032,241.174995 39.65,242.105 C39.0099968,243.035005 38.5100018,244.154993 38.15,245.465 C37.7899982,246.775007 37.61,247.929995 37.61,248.93 C37.61,249.930005 37.7549986,250.569999 38.045,250.85 C38.3350015,251.130001 38.6899979,251.27 39.11,251.27 C39.6100025,251.27 40.1049976,251.035002 40.595,250.565 Z M50.09,253.01 C49.3299962,252.229996 48.95,251.010008 48.95,249.35 C48.95,247.869993 49.2449971,246.315008 49.835,244.685 C50.425003,243.054992 51.3049942,241.675006 52.475,240.545 C53.6450059,239.414994 55.0399919,238.85 56.66,238.85 C57.4800041,238.85 58.089998,238.989999 58.49,239.27 C58.890002,239.550001 59.09,239.919998 59.09,240.38 L59.09,240.5 L60.56,233.6 L65,233 L61.55,249.2 C61.4699996,249.500001 61.43,249.819998 61.43,250.16 C61.43,250.560002 61.5249991,250.844999 61.715,251.015 C61.905001,251.185001 62.2199978,251.27 62.66,251.27 C63.2200028,251.27 63.704998,251.030002 64.115,250.55 C64.5250021,250.069998 64.8499988,249.430004 65.09,248.63 L66.35,248.63 C65.1299939,252.210018 63.120014,254 60.32,254 C59.4999959,254 58.8350025,253.780002 58.325,253.34 C57.8149975,252.899998 57.5000006,252.260004 57.38,251.42 C56.8599974,252.220004 56.2350037,252.879997 55.505,253.4 C54.7749964,253.920003 53.9200049,254.18 52.94,254.18 C51.7999943,254.18 50.8500038,253.790004 50.09,253.01 Z M56.345,250.61 C56.8350025,250.169998 57.1699991,249.560004 57.35,248.78 L57.35,248.63 L58.82,241.76 C58.6399991,241.059997 58.2300032,240.71 57.59,240.71 C56.789996,240.71 56.0700032,241.174995 55.43,242.105 C54.7899968,243.035005 54.2900018,244.154993 53.93,245.465 C53.5699982,246.775007 53.39,247.929995 53.39,248.93 C53.39,249.930005 53.5349986,250.569999 53.825,250.85 C54.1150015,251.130001 54.4699979,251.27 54.89,251.27 C55.3700024,251.27 55.8549976,251.050002 56.345,250.61 Z M66.08,253.625 C65.4199967,253.254998 64.9300016,252.775003 64.61,252.185 C64.2899984,251.594997 64.13,250.980003 64.13,250.34 C64.13,249.679997 64.2849985,249.105002 64.595,248.615 C64.9050016,248.124998 65.2799978,247.770001 65.72,247.55 C66.5000039,246.149993 67.1799971,244.735007 67.76,243.305 C68.3400029,241.874993 68.8899974,240.330008 69.41,238.67 L73.85,238.07 C73.9500005,240.630013 74.1199988,243.399985 74.36,246.38 C74.4600005,247.580006 74.51,248.449997 74.51,248.99 C74.51,249.450002 74.4700004,249.829998 74.39,250.13 C75.3300047,249.589997 76.0499975,249.090002 76.55,248.63 L77.81,248.63 C76.5299936,250.110007 75.0000089,251.359995 73.22,252.38 C72.6399971,253.000003 71.9250043,253.454999 71.075,253.745 C70.2249958,254.035001 69.3700043,254.18 68.51,254.18 C67.5499952,254.18 66.7400033,253.995002 66.08,253.625 Z M69.41,251.15 C69.9100025,250.709998 70.16,250.000005 70.16,249.02 C70.16,248.419997 70.1000006,247.580005 69.98,246.5 C69.779999,244.219989 69.6500003,242.690004 69.59,241.91 C69.1099976,243.490008 68.3000057,245.379989 67.16,247.58 C67.6200023,247.820001 67.85,248.169998 67.85,248.63 C67.85,249.010002 67.7250013,249.349998 67.475,249.65 C67.2249988,249.950001 66.9100019,250.1 66.53,250.1 C66.1099979,250.1 65.8400006,249.970001 65.72,249.71 C65.72,250.430004 65.8649986,250.959998 66.155,251.3 C66.4450015,251.640002 66.9099968,251.81 67.55,251.81 C68.2900037,251.81 68.9099975,251.590002 69.41,251.15 Z M84.695,253.205 C84.1249972,252.554997 83.84,251.750005 83.84,250.79 C83.84,250.369998 83.8899995,249.895003 83.99,249.365 C84.0900005,248.834997 84.1949995,248.320002 84.305,247.82 C84.4150006,247.319997 84.4899998,247.000001 84.53,246.86 C84.6900008,246.159997 84.8399993,245.470003 84.98,244.79 C85.1200007,244.109997 85.19,243.560002 85.19,243.14 C85.19,242.119995 84.8300036,241.61 84.11,241.61 C83.5899974,241.61 83.130002,241.864997 82.73,242.375 C82.329998,242.885003 82.0100012,243.549996 81.77,244.37 L79.73,254 L75.41,254 L79.76,233.6 L84.2,233 L82.58,240.56 C83.580005,239.439994 84.7499933,238.88 86.09,238.88 C87.1100051,238.88 87.919997,239.159997 88.52,239.72 C89.120003,240.280003 89.42,241.129994 89.42,242.27 C89.42,242.850003 89.3500007,243.494996 89.21,244.205 C89.0699993,244.915004 88.8700013,245.779995 88.61,246.8 C88.4499992,247.420003 88.3050007,248.024997 88.175,248.615 C88.0449993,249.205003 87.98,249.669998 87.98,250.01 C87.98,250.410002 88.0699991,250.719999 88.25,250.94 C88.4300009,251.160001 88.7399978,251.27 89.18,251.27 C89.780003,251.27 90.2599982,251.055002 90.62,250.625 C90.9800018,250.194998 91.3399982,249.530004 91.7,248.63 L92.96,248.63 C92.2199963,250.830011 91.3650049,252.304996 90.395,253.055 C89.4249952,253.805004 88.4200052,254.18 87.38,254.18 C86.1599939,254.18 85.2650029,253.855003 84.695,253.205 Z M92.57,252.98 C91.7099957,252.219996 91.28,251.020008 91.28,249.38 C91.28,248.019993 91.5599972,246.510008 92.12,244.85 C92.6800028,243.189992 93.5799938,241.755006 94.82,240.545 C96.0600062,239.334994 97.6199906,238.73 99.5,238.73 C102.060013,238.73 103.34,240.329984 103.34,243.53 L103.34,243.56 C103.4,243.58 103.509999,243.59 103.67,243.59 C104.330003,243.59 105.089996,243.415002 105.95,243.065 C106.810004,242.714998 107.589996,242.290003 108.29,241.79 L108.56,242.6 C107.979997,243.220003 107.225005,243.744998 106.295,244.175 C105.364995,244.605002 104.350005,244.909999 103.25,245.09 C103.089999,246.910009 102.680003,248.499993 102.02,249.86 C101.359997,251.220007 100.510005,252.269996 99.47,253.01 C98.4299948,253.750004 97.3000061,254.12 96.08,254.12 C94.5999926,254.12 93.4300043,253.740004 92.57,252.98 Z M98.72,250.595 C99.2000024,250.044997 99.6199982,249.295005 99.98,248.345 C100.340002,247.394995 100.599999,246.340006 100.76,245.18 C100.219997,245.059999 99.95,244.640004 99.95,243.92 C99.95,243.099996 100.259997,242.560001 100.88,242.3 C100.84,241.639997 100.740001,241.185001 100.58,240.935 C100.419999,240.684999 100.140002,240.56 99.74,240.56 C99.0799967,240.56 98.4400031,241.039995 97.82,242 C97.1999969,242.960005 96.7000019,244.109993 96.32,245.45 C95.9399981,246.790007 95.75,247.969995 95.75,248.99 C95.75,249.950005 95.8599989,250.594998 96.08,250.925 C96.3000011,251.255002 96.6999971,251.42 97.28,251.42 C97.7600024,251.42 98.2399976,251.145003 98.72,250.595 Z M107.15,237.89 L111.47,237.89 L110.99,240.14 C111.990005,239.279996 113.159993,238.85 114.5,238.85 C115.620006,238.85 116.509997,239.219996 117.17,239.96 C117.830003,240.700004 118.16,241.909992 118.16,243.59 C118.16,245.170008 117.930002,246.764992 117.47,248.375 C117.009998,249.985008 116.230005,251.354994 115.13,252.485 C114.029995,253.615006 112.580009,254.18 110.78,254.18 C109.499994,254.18 108.650002,253.820004 108.23,253.1 L106.67,260.42 L102.14,261.5 L107.15,237.89 Z M112.235,250.22 C112.865003,249.319996 113.324999,248.245006 113.615,246.995 C113.905001,245.744994 114.05,244.580005 114.05,243.5 C114.05,241.839992 113.550005,241.01 112.55,241.01 C112.189998,241.01 111.825002,241.139999 111.455,241.4 C111.084998,241.660001 110.760001,242.019998 110.48,242.48 L108.71,250.88 C108.870001,251.340002 109.249997,251.57 109.85,251.57 C110.810005,251.57 111.604997,251.120004 112.235,250.22 Z" id="Headshop" fill="#DD0900" stroke="#001FF5"></path>
                <path d="M348.885,254.015 C348.294997,253.684998 348,253.110004 348,252.29 C348,251.769997 348.129999,251.190003 348.39,250.55 C348.750002,250.950002 349.084998,251.229999 349.395,251.39 C349.705002,251.550001 350.039998,251.63 350.4,251.63 C351.400005,251.63 352.144998,251.070006 352.635,249.95 C353.125002,248.829994 353.37,247.590007 353.37,246.23 C353.37,243.689987 352.420009,242.42 350.52,242.42 C349.979997,242.42 349.520002,242.45 349.14,242.51 L346.68,254 L342.36,254 L346.44,234.92 L350.88,234.32 L349.47,240.98 L349.65,240.98 C350.410004,240.98 351.119997,240.735002 351.78,240.245 C352.440003,239.754998 352.969998,239.135004 353.37,238.385 C353.770002,237.634996 353.97,236.880004 353.97,236.12 C353.97,235.199995 353.645003,234.430003 352.995,233.81 C352.344997,233.189997 351.350007,232.88 350.01,232.88 C348.789994,232.88 347.600006,233.154997 346.44,233.705 C345.279994,234.255003 344.335004,235.079994 343.605,236.18 C342.874996,237.280006 342.51,238.609992 342.51,240.17 C342.51,240.910004 342.579999,241.424999 342.72,241.715 C342.860001,242.005001 342.93,242.17 342.93,242.21 C341.869995,242.21 341.070003,241.995002 340.53,241.565 C339.989997,241.134998 339.72,240.430005 339.72,239.45 C339.72,238.089993 340.229995,236.800006 341.25,235.58 C342.270005,234.359994 343.619992,233.375004 345.3,232.625 C346.980008,231.874996 348.749991,231.5 350.61,231.5 C352.010007,231.5 353.189995,231.719998 354.15,232.16 C355.110005,232.600002 355.824998,233.179996 356.295,233.9 C356.765002,234.620004 357,235.409996 357,236.27 C357,237.190005 356.740003,238.079996 356.22,238.94 C355.699997,239.800004 354.960005,240.499997 354,241.04 C355.200006,241.260001 356.089997,241.814996 356.67,242.705 C357.250003,243.595004 357.54,244.649994 357.54,245.87 C357.54,247.010006 357.325002,248.249993 356.895,249.59 C356.464998,250.930007 355.755005,252.084995 354.765,253.055 C353.774995,254.025005 352.510008,254.51 350.97,254.51 C350.169996,254.51 349.475003,254.345002 348.885,254.015 Z M359.46,252.98 C358.599996,252.219996 358.17,251.020008 358.17,249.38 C358.17,248.019993 358.449997,246.510008 359.01,244.85 C359.570003,243.189992 360.469994,241.755006 361.71,240.545 C362.950006,239.334994 364.509991,238.73 366.39,238.73 C368.950013,238.73 370.23,240.329984 370.23,243.53 L370.23,243.56 C370.29,243.58 370.399999,243.59 370.56,243.59 C371.220003,243.59 371.979996,243.415002 372.84,243.065 C373.700004,242.714998 374.479996,242.290003 375.18,241.79 L375.45,242.6 C374.869997,243.220003 374.115005,243.744998 373.185,244.175 C372.254995,244.605002 371.240005,244.909999 370.14,245.09 C369.979999,246.910009 369.570003,248.499993 368.91,249.86 C368.249997,251.220007 367.400005,252.269996 366.36,253.01 C365.319995,253.750004 364.190006,254.12 362.97,254.12 C361.489993,254.12 360.320004,253.740004 359.46,252.98 Z M365.61,250.595 C366.090002,250.044997 366.509998,249.295005 366.87,248.345 C367.230002,247.394995 367.489999,246.340006 367.65,245.18 C367.109997,245.059999 366.84,244.640004 366.84,243.92 C366.84,243.099996 367.149997,242.560001 367.77,242.3 C367.73,241.639997 367.630001,241.185001 367.47,240.935 C367.309999,240.684999 367.030002,240.56 366.63,240.56 C365.969997,240.56 365.330003,241.039995 364.71,242 C364.089997,242.960005 363.590002,244.109993 363.21,245.45 C362.829998,246.790007 362.64,247.969995 362.64,248.99 C362.64,249.950005 362.749999,250.594998 362.97,250.925 C363.190001,251.255002 363.589997,251.42 364.17,251.42 C364.650002,251.42 365.129998,251.145003 365.61,250.595 Z M372.405,253.28 C371.814997,252.679997 371.52,251.780006 371.52,250.58 C371.52,250.079997 371.599999,249.430004 371.76,248.63 L373.8,239 L378.12,239 L375.96,249.2 C375.9,249.500001 375.87,249.779999 375.87,250.04 C375.87,250.860004 376.169997,251.27 376.77,251.27 C377.330003,251.27 377.809998,251.035002 378.21,250.565 C378.610002,250.094998 378.929999,249.450004 379.17,248.63 L381.21,239 L385.53,239 L383.37,249.2 C383.29,249.500001 383.25,249.819998 383.25,250.16 C383.25,250.560002 383.344999,250.844999 383.535,251.015 C383.725001,251.185001 384.039998,251.27 384.48,251.27 C385.040003,251.27 385.524998,251.030002 385.935,250.55 C386.345002,250.069998 386.669999,249.430004 386.91,248.63 L388.17,248.63 C387.429996,250.790011 386.515005,252.254996 385.425,253.025 C384.334995,253.795004 383.240005,254.18 382.14,254.18 C381.279996,254.18 380.595003,253.940002 380.085,253.46 C379.574997,252.979998 379.27,252.270005 379.17,251.33 C378.489997,252.430005 377.775004,253.179998 377.025,253.58 C376.274996,253.980002 375.510004,254.18 374.73,254.18 C373.769995,254.18 372.995003,253.880003 372.405,253.28 Z M387.555,253.28 C386.964997,252.679997 386.67,251.780006 386.67,250.58 C386.67,250.079997 386.749999,249.430004 386.91,248.63 L388.71,240.2 L387.72,240.2 L387.96,239 L388.95,239 L389.85,234.86 L394.29,234.26 L393.27,239 L395.07,239 L394.83,240.2 L393.03,240.2 L391.11,249.2 C391.03,249.500001 390.99,249.819998 390.99,250.16 C390.99,250.560002 391.084999,250.844999 391.275,251.015 C391.465001,251.185001 391.779998,251.27 392.22,251.27 C392.800003,251.27 393.339997,251.025002 393.84,250.535 C394.340002,250.044998 394.699999,249.410004 394.92,248.63 L396.18,248.63 C395.439996,250.790011 394.490006,252.254996 393.33,253.025 C392.169994,253.795004 391.020006,254.18 389.88,254.18 C388.919995,254.18 388.145003,253.880003 387.555,253.28 Z M398.25,236.69 C397.789998,236.229998 397.56,235.670003 397.56,235.01 C397.56,234.349997 397.789998,233.785002 398.25,233.315 C398.710002,232.844998 399.269997,232.61 399.93,232.61 C400.590003,232.61 401.154998,232.844998 401.625,233.315 C402.095002,233.785002 402.33,234.349997 402.33,235.01 C402.33,235.670003 402.095002,236.229998 401.625,236.69 C401.154998,237.150002 400.590003,237.38 399.93,237.38 C399.269997,237.38 398.710002,237.150002 398.25,236.69 Z M395.565,253.28 C394.974997,252.679997 394.68,251.780006 394.68,250.58 C394.68,250.079997 394.759999,249.430004 394.92,248.63 L396.96,239 L401.28,239 L399.12,249.2 C399.04,249.500001 399,249.819998 399,250.16 C399,250.560002 399.094999,250.844999 399.285,251.015 C399.475001,251.185001 399.789998,251.27 400.23,251.27 C400.810003,251.27 401.349997,251.025002 401.85,250.535 C402.350002,250.044998 402.709999,249.410004 402.93,248.63 L404.19,248.63 C403.449996,250.790011 402.500006,252.254996 401.34,253.025 C400.179994,253.795004 399.030006,254.18 397.89,254.18 C396.929995,254.18 396.155003,253.880003 395.565,253.28 Z M410.1,252.53 C409.079995,253.630006 407.890007,254.18 406.53,254.18 C405.389994,254.18 404.440004,253.790004 403.68,253.01 C402.919996,252.229996 402.54,251.010008 402.54,249.35 C402.54,247.869993 402.834997,246.315008 403.425,244.685 C404.015003,243.054992 404.894994,241.675006 406.065,240.545 C407.235006,239.414994 408.629992,238.85 410.25,238.85 C411.070004,238.85 411.679998,238.989999 412.08,239.27 C412.480002,239.550001 412.68,239.919998 412.68,240.38 L412.68,240.44 L412.98,239 L417.3,239 L412.74,260.42 L408.21,261.5 L410.1,252.53 Z M409.815,250.7 C410.265002,250.319998 410.599999,249.800003 410.82,249.14 L412.41,241.73 C412.249999,241.049997 411.840003,240.71 411.18,240.71 C410.379996,240.71 409.660003,241.174995 409.02,242.105 C408.379997,243.035005 407.880002,244.154993 407.52,245.465 C407.159998,246.775007 406.98,247.929995 406.98,248.93 C406.98,249.930005 407.124999,250.569999 407.415,250.85 C407.705001,251.130001 408.059998,251.27 408.48,251.27 C408.920002,251.27 409.364998,251.080002 409.815,250.7 Z M418.155,253.28 C417.564997,252.679997 417.27,251.780006 417.27,250.58 C417.27,250.079997 417.349999,249.430004 417.51,248.63 L419.55,239 L423.87,239 L421.71,249.2 C421.65,249.500001 421.62,249.779999 421.62,250.04 C421.62,250.860004 421.919997,251.27 422.52,251.27 C423.080003,251.27 423.559998,251.035002 423.96,250.565 C424.360002,250.094998 424.679999,249.450004 424.92,248.63 L426.96,239 L431.28,239 L429.12,249.2 C429.04,249.500001 429,249.819998 429,250.16 C429,250.560002 429.094999,250.844999 429.285,251.015 C429.475001,251.185001 429.789998,251.27 430.23,251.27 C430.790003,251.27 431.274998,251.030002 431.685,250.55 C432.095002,250.069998 432.419999,249.430004 432.66,248.63 L433.92,248.63 C433.179996,250.790011 432.265005,252.254996 431.175,253.025 C430.084995,253.795004 428.990005,254.18 427.89,254.18 C427.029996,254.18 426.345003,253.940002 425.835,253.46 C425.324997,252.979998 425.02,252.270005 424.92,251.33 C424.239997,252.430005 423.525004,253.179998 422.775,253.58 C422.024996,253.980002 421.260004,254.18 420.48,254.18 C419.519995,254.18 418.745003,253.880003 418.155,253.28 Z M433.47,253.025 C432.649996,252.254996 432.24,251.050008 432.24,249.41 C432.24,248.029993 432.509997,246.510008 433.05,244.85 C433.590003,243.189992 434.469994,241.755006 435.69,240.545 C436.910006,239.334994 438.459991,238.73 440.34,238.73 C442.540011,238.73 443.64,239.68999 443.64,241.61 C443.64,242.730006 443.320003,243.759995 442.68,244.7 C442.039997,245.640005 441.190005,246.394997 440.13,246.965 C439.069995,247.535003 437.940006,247.86 436.74,247.94 C436.7,248.380002 436.68,248.679999 436.68,248.84 C436.68,250.500008 437.299994,251.33 438.54,251.33 C439.100003,251.33 439.699997,251.180002 440.34,250.88 C440.980003,250.579998 441.559997,250.200002 442.08,249.74 C441.539997,252.700015 439.810015,254.18 436.89,254.18 C435.429993,254.18 434.290004,253.795004 433.47,253.025 Z M439.095,245.75 C439.765003,245.269998 440.304998,244.655004 440.715,243.905 C441.125002,243.154996 441.33,242.370004 441.33,241.55 C441.33,240.729996 441.080002,240.32 440.58,240.32 C439.879997,240.32 439.185003,240.954994 438.495,242.225 C437.804997,243.495006 437.290002,244.919992 436.95,246.5 C437.710004,246.48 438.424997,246.230002 439.095,245.75 Z" id="Boutique" fill="#DD0900" stroke="#001FF5"></path>
                <g id="arrowRight" transform="translate(121.000000, 147.000000) scale(-1, 1) translate(-121.000000, -147.000000) translate(45.000000, 70.000000)" stroke-linecap="square">
                    <path d="M142.5,146.5 L146,150" id="Line" stroke="#001FF5" stroke-width="2"></path>
                    <path d="M80.5,63.5 L149.5,153.5" id="Line" stroke="url(#linearGradient-1)"></path>
                    <path id="Line-decoration-1" d="M149.5,153.5 L145.309758,143.103757 L140.54812,146.754346 L149.5,153.5 Z" stroke="url(#linearGradient-1)"></path>
                    <path d="M144.5,144.5 L147,150" id="Line" stroke="#001FF5" stroke-width="2"></path>
                    <g id="windRight" transform="translate(75.000000, 0.000000)">
                        <path d="M54.5,123.5 L6.91977776,59.8870605 C-2.60955497,6.59964374 -1.77804734,-10.6944847 9.41430067,8.00467526" id="Line" stroke="url(#linearGradient-2)"></path>
                        <path d="M76.5,124.5 L28.9197778,60.8870605 C19.390445,7.59964374 20.2219527,-9.69448466 31.4143007,9.00467526" id="Line" stroke="url(#linearGradient-3)"></path>
                        <path d="M59.5,124.5 L11.9197778,60.8870605 C2.39044503,7.59964374 3.22195266,-9.69448466 14.4143007,9.00467526" id="Line" stroke="url(#linearGradient-4)"></path>
                        <path d="M70.5,124.5 L22.9197778,60.8870605 C13.390445,7.59964374 14.2219527,-9.69448466 25.4143007,9.00467526" id="Line" stroke="url(#linearGradient-5)"></path>
                        <path d="M64.5,124.5 L16.9197778,60.8870605 C7.39044503,7.59964374 8.22195266,-9.69448466 19.4143007,9.00467526" id="Line" stroke="url(#linearGradient-6)"></path>
                    </g>
                    <g id="windLeft" transform="translate(70.500000, 95.500000) scale(-1, 1) rotate(75.000000) translate(-70.500000, -95.500000) translate(32.000000, 33.000000)">
                        <path d="M54.5,123.5 L6.91977776,59.8870605 C-2.60955497,6.59964374 -1.77804734,-10.6944847 9.41430067,8.00467526" id="Line" stroke="url(#linearGradient-2)"></path>
                        <path d="M76.5,124.5 L28.9197778,60.8870605 C19.390445,7.59964374 20.2219527,-9.69448466 31.4143007,9.00467526" id="Line" stroke="url(#linearGradient-3)"></path>
                        <path d="M59.5,124.5 L11.9197778,60.8870605 C2.39044503,7.59964374 3.22195266,-9.69448466 14.4143007,9.00467526" id="Line" stroke="url(#linearGradient-4)"></path>
                        <path d="M70.5,124.5 L22.9197778,60.8870605 C13.390445,7.59964374 14.2219527,-9.69448466 25.4143007,9.00467526" id="Line" stroke="url(#linearGradient-5)"></path>
                        <path d="M64.5,124.5 L16.9197778,60.8870605 C7.39044503,7.59964374 8.22195266,-9.69448466 19.4143007,9.00467526" id="Line" stroke="url(#linearGradient-6)"></path>
                    </g>
                </g>
                <g id="arrowRight" transform="translate(255.000000, 70.000000)" stroke-linecap="square">
                    <path d="M142.5,146.5 L146,150" id="Line" stroke="#001FF5" stroke-width="2"></path>
                    <path d="M80.5,63.5 L149.5,153.5" id="Line" stroke="url(#linearGradient-1)"></path>
                    <path id="Line-decoration-1" d="M149.5,153.5 L145.309758,143.103757 L140.54812,146.754346 L149.5,153.5 Z" stroke="url(#linearGradient-1)"></path>
                    <path d="M144.5,144.5 L147,150" id="Line" stroke="#001FF5" stroke-width="2"></path>
                    <g id="windRight" transform="translate(75.000000, 0.000000)">
                        <path d="M54.5,123.5 L6.91977776,59.8870605 C-2.60955497,6.59964374 -1.77804734,-10.6944847 9.41430067,8.00467526" id="Line" stroke="url(#linearGradient-2)"></path>
                        <path d="M76.5,124.5 L28.9197778,60.8870605 C19.390445,7.59964374 20.2219527,-9.69448466 31.4143007,9.00467526" id="Line" stroke="url(#linearGradient-3)"></path>
                        <path d="M59.5,124.5 L11.9197778,60.8870605 C2.39044503,7.59964374 3.22195266,-9.69448466 14.4143007,9.00467526" id="Line" stroke="url(#linearGradient-4)"></path>
                        <path d="M70.5,124.5 L22.9197778,60.8870605 C13.390445,7.59964374 14.2219527,-9.69448466 25.4143007,9.00467526" id="Line" stroke="url(#linearGradient-5)"></path>
                        <path d="M64.5,124.5 L16.9197778,60.8870605 C7.39044503,7.59964374 8.22195266,-9.69448466 19.4143007,9.00467526" id="Line" stroke="url(#linearGradient-6)"></path>
                    </g>
                    <g id="windLeft" transform="translate(70.500000, 95.500000) scale(-1, 1) rotate(75.000000) translate(-70.500000, -95.500000) translate(32.000000, 33.000000)">
                        <path d="M54.5,123.5 L6.91977776,59.8870605 C-2.60955497,6.59964374 -1.77804734,-10.6944847 9.41430067,8.00467526" id="Line" stroke="url(#linearGradient-2)"></path>
                        <path d="M76.5,124.5 L28.9197778,60.8870605 C19.390445,7.59964374 20.2219527,-9.69448466 31.4143007,9.00467526" id="Line" stroke="url(#linearGradient-3)"></path>
                        <path d="M59.5,124.5 L11.9197778,60.8870605 C2.39044503,7.59964374 3.22195266,-9.69448466 14.4143007,9.00467526" id="Line" stroke="url(#linearGradient-4)"></path>
                        <path d="M70.5,124.5 L22.9197778,60.8870605 C13.390445,7.59964374 14.2219527,-9.69448466 25.4143007,9.00467526" id="Line" stroke="url(#linearGradient-5)"></path>
                        <path d="M64.5,124.5 L16.9197778,60.8870605 C7.39044503,7.59964374 8.22195266,-9.69448466 19.4143007,9.00467526" id="Line" stroke="url(#linearGradient-6)"></path>
                    </g>
                </g>
            </g>
        </g>
    </g>
</svg>