<?xml version="1.0" encoding="UTF-8"?>
<svg width="450px" height="74px" viewBox="0 0 450 74" version="1.1" xmlns="http://www.w3.org/2000/svg" xmlns:xlink="http://www.w3.org/1999/xlink">
    <!-- Generator: Sketch 44.1 (41455) - http://www.bohemiancoding.com/sketch -->
    <title>Mobile</title>
    <desc>Created with Sketch.</desc>
    <defs></defs>
    <g id="Page-1" stroke="none" stroke-width="1" fill="none" fill-rule="evenodd">
        <g id="Mobile" fill="#001FF5">
            <path d="M37.6,20.68 C35.7066572,21.4000036 34.2400052,22.5133258 33.2,24.02 C32.1599948,25.5266742 31.64,27.3733224 31.64,29.56 C31.64,30.5466716 31.7333324,31.2333314 31.92,31.62 C32.1066676,32.0066686 32.2,32.2266664 32.2,32.28 C30.7599928,32.28 29.6866702,31.980003 28.98,31.38 C28.2733298,30.779997 27.92,29.7866736 27.92,28.4 C27.92,26.6933248 28.619993,25.0333414 30.02,23.42 C31.420007,21.8066586 33.2133224,20.500005 35.4,19.5 C37.5866776,18.499995 39.7733224,18 41.96,18 C42.3333352,18 42.8666632,18.0266664 43.56,18.08 L43.92,42.68 L52.32,18.2 L57.4,18.2 L57.76,42.68 L66.16,18.2 L68.96,18.2 L57.84,48 L52.08,48 L51.6,27.64 L44,48 L38.24,48 L37.6,20.68 Z M77.02,46.94 C76.2599962,46.073329 75.88,45.0000064 75.88,43.72 C75.88,43.1599972 75.946666,42.5266702 76.08,41.82 C76.213334,41.1133298 76.3533326,40.42667 76.5,39.76 C76.6466674,39.09333 76.7466664,38.6666676 76.8,38.48 C77.0133344,37.546662 77.2133324,36.6266712 77.4,35.72 C77.5866676,34.8133288 77.68,34.0800028 77.68,33.52 C77.68,32.1599932 77.2000048,31.48 76.24,31.48 C75.5466632,31.48 74.933336,31.8199966 74.4,32.5 C73.866664,33.1800034 73.4400016,34.0666612 73.12,35.16 L70.4,48 L64.64,48 L70.44,20.8 L76.36,20 L74.2,30.08 C75.53334,28.5866592 77.0933244,27.84 78.88,27.84 C80.2400068,27.84 81.319996,28.2133296 82.12,28.96 C82.920004,29.7066704 83.32,30.8399924 83.32,32.36 C83.32,33.1333372 83.2266676,33.9933286 83.04,34.94 C82.8533324,35.8866714 82.5866684,37.0399932 82.24,38.4 C82.0266656,39.2266708 81.8333342,40.0333294 81.66,40.82 C81.4866658,41.6066706 81.4,42.2266644 81.4,42.68 C81.4,43.213336 81.5199988,43.6266652 81.76,43.92 C82.0000012,44.2133348 82.4133304,44.36 83,44.36 C83.800004,44.36 84.4399976,44.0733362 84.92,43.5 C85.4000024,42.9266638 85.8799976,42.040006 86.36,40.84 L88.04,40.84 C87.0533284,43.773348 85.9133398,45.739995 84.62,46.74 C83.3266602,47.740005 81.9866736,48.24 80.6,48.24 C78.9733252,48.24 77.7800038,47.806671 77.02,46.94 Z M87.36,46.68 C86.3466616,45.6399948 85.84,44.0133444 85.84,41.8 C85.84,39.8266568 86.2333294,37.7533442 87.02,35.58 C87.8066706,33.4066558 88.9799922,31.5666742 90.54,30.06 C92.1000078,28.5533258 93.9599892,27.8 96.12,27.8 C97.2133388,27.8 98.026664,27.9866648 98.56,28.36 C99.093336,28.7333352 99.36,29.2266636 99.36,29.84 L99.36,30.12 L99.8,28 L105.56,28 L102.68,41.6 C102.573333,42.000002 102.52,42.4266644 102.52,42.88 C102.52,44.0266724 103.066661,44.6 104.16,44.6 C104.90667,44.6 105.553331,44.2533368 106.1,43.56 C106.646669,42.8666632 107.079998,41.9600056 107.4,40.84 L109.08,40.84 C108.093328,43.7200144 106.873341,45.6733282 105.42,46.7 C103.966659,47.7266718 102.506674,48.24 101.04,48.24 C99.9199944,48.24 99.0200034,47.9266698 98.34,47.3 C97.6599966,46.6733302 97.253334,45.760006 97.12,44.56 C96.3466628,45.6533388 95.4866714,46.5399966 94.54,47.22 C93.5933286,47.9000034 92.4666732,48.24 91.16,48.24 C89.6399924,48.24 88.3733384,47.7200052 87.36,46.68 Z M95.74,43.42 C96.3933366,42.7933302 96.8399988,41.9333388 97.08,40.84 L99,31.8 C99,31.4533316 98.866668,31.113335 98.6,30.78 C98.333332,30.446665 97.9200028,30.28 97.36,30.28 C96.293328,30.28 95.3333376,30.8999938 94.48,32.14 C93.6266624,33.3800062 92.9600024,34.8733246 92.48,36.62 C91.9999976,38.3666754 91.76,39.90666 91.76,41.24 C91.76,42.57334 91.9533314,43.4266648 92.34,43.8 C92.7266686,44.1733352 93.1999972,44.36 93.76,44.36 C94.42667,44.36 95.0866634,44.0466698 95.74,43.42 Z M108.14,47 C107.486663,46.1733292 107.16,45.0800068 107.16,43.72 C107.16,43.0266632 107.239999,42.3200036 107.4,41.6 L109.96,29.6 L108.64,29.6 L108.96,28 L110.28,28 L111.48,22.48 L117.4,21.68 C117.159999,22.6933384 117.026667,23.2933324 117,23.48 C116.813332,24.2266704 116.493336,25.733322 116.04,28 L118.44,28 L118.12,29.6 L115.72,29.6 L113.16,41.6 C113.026666,42.1866696 112.96,42.6533316 112.96,43 C112.96,43.9600048 113.426662,44.44 114.36,44.44 C114.840002,44.44 115.186666,44.4000004 115.4,44.32 C114.866664,45.8666744 114.240004,46.906664 113.52,47.44 C112.799996,47.973336 112.013338,48.24 111.16,48.24 C109.799993,48.24 108.793337,47.8266708 108.14,47 Z M130.16,57 C129.306662,56.33333 128.88,55.3733396 128.88,54.12 C128.88,52.5999924 129.493327,51.3800046 130.72,50.46 C131.946673,49.5399954 133.506657,48.7733364 135.4,48.16 L135.88,46 C135.106663,46.8533376 134.320004,47.4399984 133.52,47.76 C132.719996,48.0800016 131.906671,48.24 131.08,48.24 C129.799994,48.24 128.766671,47.840004 127.98,47.04 C127.193329,46.239996 126.8,45.040008 126.8,43.44 C126.8,42.77333 126.906666,41.906672 127.12,40.84 L129.84,28 L135.6,28 L132.72,41.6 C132.64,41.9200016 132.6,42.2533316 132.6,42.6 C132.6,43.7733392 132.999996,44.36 133.8,44.36 C134.493337,44.36 135.106664,44.060003 135.64,43.46 C136.173336,42.859997 136.599998,42.0666716 136.92,41.08 L139.72,28 L145.48,28 L141.52,46.56 C142.800006,46.1333312 143.826663,45.4933376 144.6,44.64 C145.373337,43.7866624 146.026664,42.5200084 146.56,40.84 L148.24,40.84 C147.519996,43.2133452 146.546673,44.9533278 145.32,46.06 C144.093327,47.1666722 142.706674,47.919998 141.16,48.32 L140.56,51.2 C140.026664,53.7866796 139.106673,55.5666618 137.8,56.54 C136.493327,57.5133382 135.013342,58 133.36,58 C132.079994,58 131.013338,57.66667 130.16,57 Z M133.76,53.96 C134.186669,53.3466636 134.519999,52.4666724 134.76,51.32 L135,50.16 C132.386654,51.1200048 131.08,52.2533268 131.08,53.56 C131.08,53.9066684 131.199999,54.213332 131.44,54.48 C131.680001,54.746668 132.013331,54.88 132.44,54.88 C132.893336,54.88 133.333331,54.5733364 133.76,53.96 Z M147.72,46.64 C146.573328,45.6266616 146,44.0266776 146,41.84 C146,40.0266576 146.37333,38.0133444 147.12,35.8 C147.86667,33.5866556 149.066658,31.6733414 150.72,30.06 C152.373342,28.4466586 154.453321,27.64 156.96,27.64 C160.37335,27.64 162.08,29.773312 162.08,34.04 L162.08,34.08 C162.16,34.1066668 162.306666,34.12 162.52,34.12 C163.400004,34.12 164.413328,33.886669 165.56,33.42 C166.706672,32.953331 167.746662,32.38667 168.68,31.72 L169.04,32.8 C168.266663,33.6266708 167.260006,34.3266638 166.02,34.9 C164.779994,35.4733362 163.426674,35.8799988 161.96,36.12 C161.746666,38.5466788 161.200004,40.6666576 160.32,42.48 C159.439996,44.2933424 158.306674,45.6933284 156.92,46.68 C155.533326,47.6666716 154.026675,48.16 152.4,48.16 C150.426657,48.16 148.866672,47.6533384 147.72,46.64 Z M155.92,43.46 C156.560003,42.726663 157.119998,41.726673 157.6,40.46 C158.080002,39.193327 158.426666,37.7866744 158.64,36.24 C157.919996,36.0799992 157.56,35.5200048 157.56,34.56 C157.56,33.4666612 157.973329,32.7466684 158.8,32.4 C158.746666,31.5199956 158.613334,30.913335 158.4,30.58 C158.186666,30.246665 157.813336,30.08 157.28,30.08 C156.399996,30.08 155.546671,30.7199936 154.72,32 C153.893329,33.2800064 153.226669,34.8133244 152.72,36.6 C152.213331,38.3866756 151.96,39.9599932 151.96,41.32 C151.96,42.6000064 152.106665,43.4599978 152.4,43.9 C152.693335,44.3400022 153.226663,44.56 154,44.56 C154.640003,44.56 155.279997,44.193337 155.92,43.46 Z M164.98,47.04 C164.193329,46.239996 163.8,45.040008 163.8,43.44 C163.8,42.77333 163.906666,41.906672 164.12,40.84 L166.84,28 L172.6,28 L169.72,41.6 C169.64,41.9200016 169.6,42.2533316 169.6,42.6 C169.6,43.7733392 169.999996,44.36 170.8,44.36 C171.54667,44.36 172.186664,44.0466698 172.72,43.42 C173.253336,42.7933302 173.679998,41.9333388 174,40.84 L176.72,28 L182.48,28 L179.6,41.6 C179.493333,42.000002 179.44,42.4266644 179.44,42.88 C179.44,43.413336 179.566665,43.7933322 179.82,44.02 C180.073335,44.2466678 180.49333,44.36 181.08,44.36 C181.506669,44.36 181.819999,44.326667 182.02,44.26 C182.220001,44.193333 182.346666,44.1466668 182.4,44.12 C182.293333,45.4800068 181.826671,46.5066632 181,47.2 C180.173329,47.8933368 179.160006,48.24 177.96,48.24 C176.839994,48.24 175.940003,47.90667 175.26,47.24 C174.579997,46.57333 174.173334,45.640006 174.04,44.44 C173.133329,45.906674 172.180005,46.906664 171.18,47.44 C170.179995,47.973336 169.146672,48.24 168.08,48.24 C166.799994,48.24 165.766671,47.840004 164.98,47.04 Z M186,25.24 C186.58667,24.5999968 186.986666,24.1066684 187.2,23.76 C187.413334,23.4133316 187.52,23.0933348 187.52,22.8 C187.52,22.5599988 187.466667,22.3533342 187.36,22.18 C187.253333,22.0066658 187.066668,21.7733348 186.8,21.48 C186.506665,21.1599984 186.286667,20.866668 186.14,20.6 C185.993333,20.333332 185.92,20.0266684 185.92,19.68 C185.92,19.0399968 186.153331,18.5133354 186.62,18.1 C187.086669,17.6866646 187.679996,17.48 188.4,17.48 C189.120004,17.48 189.699998,17.713331 190.14,18.18 C190.580002,18.646669 190.8,19.2666628 190.8,20.04 C190.8,21.0800052 190.440004,22.1733276 189.72,23.32 C188.999996,24.4666724 188.066672,25.4133296 186.92,26.16 L186,25.24 Z M192.86,47.04 C192.073329,46.239996 191.68,45.040008 191.68,43.44 C191.68,42.77333 191.786666,41.906672 192,40.84 L196.28,20.8 L202.2,20 L197.6,41.6 C197.493333,42.000002 197.44,42.4266644 197.44,42.88 C197.44,43.413336 197.566665,43.7933322 197.82,44.02 C198.073335,44.2466678 198.49333,44.36 199.08,44.36 C199.853337,44.36 200.57333,44.0333366 201.24,43.38 C201.90667,42.7266634 202.386665,41.8800052 202.68,40.84 L204.36,40.84 C203.373328,43.7200144 202.106674,45.6733282 200.56,46.7 C199.013326,47.7266718 197.480008,48.24 195.96,48.24 C194.679994,48.24 193.646671,47.840004 192.86,47.04 Z M203.46,47.02 C202.673329,46.2066626 202.28,44.9866748 202.28,43.36 C202.28,42.69333 202.386666,41.826672 202.6,40.76 L206.88,20.72 L212.8,19.92 L208.2,41.52 C208.093333,41.920002 208.04,42.3066648 208.04,42.68 C208.04,43.746672 208.586661,44.28 209.68,44.28 C210.160002,44.28 210.586665,44.2000008 210.96,44.04 C210.853333,45.37334 210.380004,46.406663 209.54,47.14 C208.699996,47.873337 207.706672,48.24 206.56,48.24 C205.279994,48.24 204.246671,47.8333374 203.46,47.02 Z M212.74,56.78 C211.819995,55.9666626 211.36,54.8800068 211.36,53.52 C211.36,52.3999944 211.679997,51.4800036 212.32,50.76 C212.960003,50.0399964 213.746662,49.4666688 214.68,49.04 C215.613338,48.6133312 216.813326,48.1600024 218.28,47.68 L222.72,26.64 C223.440004,23.3333168 224.639992,21.0733394 226.32,19.86 C228.000008,18.6466606 229.919989,18.04 232.08,18.04 C234.08001,18.04 235.773326,18.37333 237.16,19.04 C238.546674,19.70667 239.24,20.906658 239.24,22.64 C239.24,23.7600056 238.940003,24.5799974 238.34,25.1 C237.739997,25.6200026 236.986671,25.88 236.08,25.88 C235.386663,25.88 234.813336,25.713335 234.36,25.38 C233.906664,25.046665 233.68,24.4933372 233.68,23.72 C233.68,23.2133308 233.806665,22.760002 234.06,22.36 C234.313335,21.959998 234.639998,21.76 235.04,21.76 C235.226668,21.76 235.333333,21.7733332 235.36,21.8 C235.333333,21.266664 235.126669,20.866668 234.74,20.6 C234.353331,20.333332 233.82667,20.2 233.16,20.2 C231.986661,20.2 231.04667,20.6266624 230.34,21.48 C229.63333,22.3333376 229.160001,23.4133268 228.92,24.72 L228.24,28 L231.44,28 L231.12,29.6 L227.92,29.6 L223.36,51.2 C222.826664,53.7066792 221.906673,55.4666616 220.6,56.48 C219.293327,57.4933384 217.866674,58 216.32,58 C214.853326,58 213.660005,57.5933374 212.74,56.78 Z M231.18,47.04 C230.393329,46.239996 230,45.040008 230,43.44 C230,42.77333 230.106666,41.906672 230.32,40.84 L233.04,28 L238.8,28 L235.92,41.6 C235.813333,42.000002 235.76,42.4266644 235.76,42.88 C235.76,43.413336 235.886665,43.7933322 236.14,44.02 C236.393335,44.2466678 236.81333,44.36 237.4,44.36 C238.173337,44.36 238.89333,44.0333366 239.56,43.38 C240.22667,42.7266634 240.706665,41.8800052 241,40.84 L242.68,40.84 C241.693328,43.7200144 240.426674,45.6733282 238.88,46.7 C237.333326,47.7266718 235.800008,48.24 234.28,48.24 C232.999994,48.24 231.966671,47.840004 231.18,47.04 Z M216.54,53.68 C216.980002,53.1733308 217.306666,52.386672 217.52,51.32 L218,49 C216.639993,49.4266688 215.560004,49.9666634 214.76,50.62 C213.959996,51.2733366 213.56,52.0133292 213.56,52.84 C213.56,53.4266696 213.746665,53.8399988 214.12,54.08 C214.493335,54.3200012 214.853332,54.44 215.2,54.44 C215.653336,54.44 216.099998,54.1866692 216.54,53.68 Z M251.86,46.94 C251.099996,46.073329 250.72,45.0000064 250.72,43.72 C250.72,43.1599972 250.786666,42.5266702 250.92,41.82 C251.053334,41.1133298 251.193333,40.42667 251.34,39.76 C251.486667,39.09333 251.586666,38.6666676 251.64,38.48 C251.853334,37.546662 252.053332,36.6266712 252.24,35.72 C252.426668,34.8133288 252.52,34.0800028 252.52,33.52 C252.52,32.1599932 252.040005,31.48 251.08,31.48 C250.386663,31.48 249.773336,31.8199966 249.24,32.5 C248.706664,33.1800034 248.280002,34.0666612 247.96,35.16 L245.24,48 L239.48,48 L243.72,28 L249.48,28 L249.04,30.08 C250.37334,28.5866592 251.933324,27.84 253.72,27.84 C255.080007,27.84 256.159996,28.2133296 256.96,28.96 C257.760004,29.7066704 258.16,30.8399924 258.16,32.36 C258.16,33.1333372 258.066668,33.9933286 257.88,34.94 C257.693332,35.8866714 257.426668,37.0399932 257.08,38.4 C256.866666,39.2266708 256.673334,40.0333294 256.5,40.82 C256.326666,41.6066706 256.24,42.2266644 256.24,42.68 C256.24,43.213336 256.359999,43.6266652 256.6,43.92 C256.840001,44.2133348 257.25333,44.36 257.84,44.36 C258.640004,44.36 259.279998,44.0733362 259.76,43.5 C260.240002,42.9266638 260.719998,42.040006 261.2,40.84 L262.88,40.84 C261.893328,43.773348 260.75334,45.739995 259.46,46.74 C258.16666,47.740005 256.826674,48.24 255.44,48.24 C253.813325,48.24 252.620004,47.806671 251.86,46.94 Z M262.2,46.68 C261.186662,45.6399948 260.68,44.0133444 260.68,41.8 C260.68,39.8266568 261.073329,37.7533442 261.86,35.58 C262.646671,33.4066558 263.819992,31.5666742 265.38,30.06 C266.940008,28.5533258 268.799989,27.8 270.96,27.8 C272.053339,27.8 272.866664,27.9866648 273.4,28.36 C273.933336,28.7333352 274.2,29.2266636 274.2,29.84 L274.2,30 L276.16,20.8 L282.08,20 L277.48,41.6 C277.373333,42.000002 277.32,42.3866648 277.32,42.76 C277.32,43.826672 277.866661,44.36 278.96,44.36 C279.440002,44.36 279.866665,44.2800008 280.24,44.12 C280.133333,45.45334 279.660004,46.4733298 278.82,47.18 C277.979996,47.8866702 276.986672,48.24 275.84,48.24 C274.773328,48.24 273.873337,47.9666694 273.14,47.42 C272.406663,46.8733306 271.920001,46.0400056 271.68,44.92 C270.079992,47.1333444 268.186678,48.24 266,48.24 C264.479992,48.24 263.213338,47.7200052 262.2,46.68 Z M270.38,43.6 C270.980003,43.0933308 271.426665,42.3866712 271.72,41.48 L271.88,40.84 L273.84,31.68 C273.599999,30.746662 273.053338,30.28 272.2,30.28 C271.133328,30.28 270.173338,30.8999938 269.32,32.14 C268.466662,33.3800062 267.800002,34.8733246 267.32,36.62 C266.839998,38.3666754 266.6,39.90666 266.6,41.24 C266.6,42.57334 266.793331,43.4266648 267.18,43.8 C267.566669,44.1733352 268.039997,44.36 268.6,44.36 C269.18667,44.36 269.779997,44.1066692 270.38,43.6 Z M290.08,46.64 C288.933328,45.6266616 288.36,44.0266776 288.36,41.84 C288.36,40.0266576 288.73333,38.0133444 289.48,35.8 C290.22667,33.5866556 291.426658,31.6733414 293.08,30.06 C294.733342,28.4466586 296.813321,27.64 299.32,27.64 C302.73335,27.64 304.44,29.773312 304.44,34.04 L304.44,34.08 C304.52,34.1066668 304.666666,34.12 304.88,34.12 C305.760004,34.12 306.773328,33.886669 307.92,33.42 C309.066672,32.953331 310.106662,32.38667 311.04,31.72 L311.4,32.8 C310.626663,33.6266708 309.620006,34.3266638 308.38,34.9 C307.139994,35.4733362 305.786674,35.8799988 304.32,36.12 C304.106666,38.5466788 303.560004,40.6666576 302.68,42.48 C301.799996,44.2933424 300.666674,45.6933284 299.28,46.68 C297.893326,47.6666716 296.386675,48.16 294.76,48.16 C292.786657,48.16 291.226672,47.6533384 290.08,46.64 Z M298.28,43.46 C298.920003,42.726663 299.479998,41.726673 299.96,40.46 C300.440002,39.193327 300.786666,37.7866744 301,36.24 C300.279996,36.0799992 299.92,35.5200048 299.92,34.56 C299.92,33.4666612 300.333329,32.7466684 301.16,32.4 C301.106666,31.5199956 300.973334,30.913335 300.76,30.58 C300.546666,30.246665 300.173336,30.08 299.64,30.08 C298.759996,30.08 297.906671,30.7199936 297.08,32 C296.253329,33.2800064 295.586669,34.8133244 295.08,36.6 C294.573331,38.3866756 294.32,39.9599932 294.32,41.32 C294.32,42.6000064 294.466665,43.4599978 294.76,43.9 C295.053335,44.3400022 295.586663,44.56 296.36,44.56 C297.000003,44.56 297.639997,44.193337 298.28,43.46 Z M307.34,47.04 C306.553329,46.239996 306.16,45.040008 306.16,43.44 C306.16,42.77333 306.266666,41.906672 306.48,40.84 L309.2,28 L314.96,28 L312.08,41.6 C312,42.000002 311.96,42.3733316 311.96,42.72 C311.96,43.8133388 312.359996,44.36 313.16,44.36 C313.90667,44.36 314.546664,44.0466698 315.08,43.42 C315.613336,42.7933302 316.039998,41.9333388 316.36,40.84 L319.08,28 L324.84,28 L321.96,41.6 C321.853333,42.000002 321.8,42.4266644 321.8,42.88 C321.8,43.413336 321.926665,43.7933322 322.18,44.02 C322.433335,44.2466678 322.85333,44.36 323.44,44.36 C324.18667,44.36 324.833331,44.0400032 325.38,43.4 C325.926669,42.7599968 326.359998,41.906672 326.68,40.84 L328.36,40.84 C327.373328,43.7200144 326.153341,45.6733282 324.7,46.7 C323.246659,47.7266718 321.786674,48.24 320.32,48.24 C319.173328,48.24 318.260003,47.9200032 317.58,47.28 C316.899997,46.6399968 316.493334,45.6933396 316.36,44.44 C315.453329,45.906674 314.500005,46.906664 313.5,47.44 C312.499995,47.973336 311.480005,48.24 310.44,48.24 C309.159994,48.24 308.126671,47.840004 307.34,47.04 Z M327.42,47 C326.766663,46.1733292 326.44,45.0800068 326.44,43.72 C326.44,43.0266632 326.519999,42.3200036 326.68,41.6 L329.24,29.6 L327.92,29.6 L328.24,28 L329.56,28 L330.76,22.48 L336.68,21.68 C336.439999,22.6933384 336.306667,23.2933324 336.28,23.48 C336.093332,24.2266704 335.773336,25.733322 335.32,28 L337.72,28 L337.4,29.6 L335,29.6 L332.44,41.6 C332.306666,42.1866696 332.24,42.6533316 332.24,43 C332.24,43.9600048 332.706662,44.44 333.64,44.44 C334.120002,44.44 334.466666,44.4000004 334.68,44.32 C334.146664,45.8666744 333.520004,46.906664 332.8,47.44 C332.079996,47.973336 331.293338,48.24 330.44,48.24 C329.079993,48.24 328.073337,47.8266708 327.42,47 Z M347.26,47.04 C346.473329,46.239996 346.08,45.040008 346.08,43.44 C346.08,42.77333 346.186666,41.906672 346.4,40.84 L348.8,29.6 L347.48,29.6 L347.8,28 L349.12,28 L350.32,22.48 L356.24,21.68 L354.88,28 L357.28,28 L356.96,29.6 L354.56,29.6 L352,41.6 C351.893333,42.000002 351.84,42.4266644 351.84,42.88 C351.84,43.413336 351.966665,43.7933322 352.22,44.02 C352.473335,44.2466678 352.89333,44.36 353.48,44.36 C354.253337,44.36 354.97333,44.0333366 355.64,43.38 C356.30667,42.7266634 356.786665,41.8800052 357.08,40.84 L358.76,40.84 C357.773328,43.7200144 356.506674,45.6733282 354.96,46.7 C353.413326,47.7266718 351.880008,48.24 350.36,48.24 C349.079994,48.24 348.046671,47.840004 347.26,47.04 Z M367.94,46.94 C367.179996,46.073329 366.8,45.0000064 366.8,43.72 C366.8,43.1599972 366.866666,42.5266702 367,41.82 C367.133334,41.1133298 367.273333,40.42667 367.42,39.76 C367.566667,39.09333 367.666666,38.6666676 367.72,38.48 C367.933334,37.546662 368.133332,36.6266712 368.32,35.72 C368.506668,34.8133288 368.6,34.0800028 368.6,33.52 C368.6,32.1599932 368.120005,31.48 367.16,31.48 C366.466663,31.48 365.853336,31.8199966 365.32,32.5 C364.786664,33.1800034 364.360002,34.0666612 364.04,35.16 L361.32,48 L355.56,48 L361.36,20.8 L367.28,20 L365.12,30.08 C366.45334,28.5866592 368.013324,27.84 369.8,27.84 C371.160007,27.84 372.239996,28.2133296 373.04,28.96 C373.840004,29.7066704 374.24,30.8399924 374.24,32.36 C374.24,33.1333372 374.146668,33.9933286 373.96,34.94 C373.773332,35.8866714 373.506668,37.0399932 373.16,38.4 C372.946666,39.2266708 372.753334,40.0333294 372.58,40.82 C372.406666,41.6066706 372.32,42.2266644 372.32,42.68 C372.32,43.213336 372.439999,43.6266652 372.68,43.92 C372.920001,44.2133348 373.33333,44.36 373.92,44.36 C374.720004,44.36 375.359998,44.0733362 375.84,43.5 C376.320002,42.9266638 376.799998,42.040006 377.28,40.84 L378.96,40.84 C377.973328,43.773348 376.83334,45.739995 375.54,46.74 C374.24666,47.740005 372.906674,48.24 371.52,48.24 C369.893325,48.24 368.700004,47.806671 367.94,46.94 Z M378.4,46.7 C377.306661,45.6733282 376.76,44.0666776 376.76,41.88 C376.76,40.0399908 377.119996,38.0133444 377.84,35.8 C378.560004,33.5866556 379.733325,31.6733414 381.36,30.06 C382.986675,28.4466586 385.053321,27.64 387.56,27.64 C390.493348,27.64 391.96,28.9199872 391.96,31.48 C391.96,32.9733408 391.533338,34.3466604 390.68,35.6 C389.826662,36.8533396 388.69334,37.8599962 387.28,38.62 C385.86666,39.3800038 384.360008,39.8133328 382.76,39.92 C382.706666,40.720004 382.68,41.253332 382.68,41.52 C382.68,42.8266732 382.906664,43.713331 383.36,44.18 C383.813336,44.646669 384.546662,44.88 385.56,44.88 C387.000007,44.88 388.233328,44.54667 389.26,43.88 C390.286672,43.21333 391.413327,42.2000068 392.64,40.84 L394,40.84 C391.039985,45.773358 387.373355,48.24 383,48.24 C381.026657,48.24 379.493339,47.7266718 378.4,46.7 Z M385.9,36.96 C386.793338,36.3199968 387.513331,35.5066716 388.06,34.52 C388.606669,33.5333284 388.88,32.4933388 388.88,31.4 C388.88,30.3066612 388.54667,29.76 387.88,29.76 C386.919995,29.76 385.980005,30.5999916 385.06,32.28 C384.139995,33.9600084 383.480002,35.866656 383.08,38 C384.066672,37.9466664 385.006662,37.6000032 385.9,36.96 Z M395.36,28 L401.12,28 L400.6,30.48 C401.506671,29.679996 402.326663,29.0666688 403.06,28.64 C403.793337,28.2133312 404.586662,28 405.44,28 C406.293338,28 406.966664,28.2933304 407.46,28.88 C407.953336,29.4666696 408.2,30.1733292 408.2,31 C408.2,31.7733372 407.946669,32.4533304 407.44,33.04 C406.933331,33.6266696 406.226671,33.92 405.32,33.92 C404.73333,33.92 404.340001,33.7800014 404.14,33.5 C403.939999,33.2199986 403.786667,32.813336 403.68,32.28 C403.6,31.9333316 403.52,31.6800008 403.44,31.52 C403.36,31.3599992 403.213334,31.28 403,31.28 C402.439997,31.28 401.966669,31.3933322 401.58,31.62 C401.193331,31.8466678 400.693336,32.2399972 400.08,32.8 L396.88,48 L391.12,48 L395.36,28 Z M408.76,46.7 C407.666661,45.6733282 407.12,44.0666776 407.12,41.88 C407.12,40.0399908 407.479996,38.0133444 408.2,35.8 C408.920004,33.5866556 410.093325,31.6733414 411.72,30.06 C413.346675,28.4466586 415.413321,27.64 417.92,27.64 C420.853348,27.64 422.32,28.9199872 422.32,31.48 C422.32,32.9733408 421.893338,34.3466604 421.04,35.6 C420.186662,36.8533396 419.05334,37.8599962 417.64,38.62 C416.22666,39.3800038 414.720008,39.8133328 413.12,39.92 C413.066666,40.5066696 413.04,40.9066656 413.04,41.12 C413.04,43.3333444 413.866658,44.44 415.52,44.44 C416.26667,44.44 417.066662,44.240002 417.92,43.84 C418.773338,43.439998 419.546663,42.9333364 420.24,42.32 C419.519996,46.2666864 417.213353,48.24 413.32,48.24 C411.373324,48.24 409.853339,47.7266718 408.76,46.7 Z M416.26,37 C417.153338,36.3599968 417.873331,35.540005 418.42,34.54 C418.966669,33.539995 419.24,32.4933388 419.24,31.4 C419.24,30.3066612 418.90667,29.76 418.24,29.76 C417.306662,29.76 416.380005,30.6066582 415.46,32.3 C414.539995,33.9933418 413.853336,35.8933228 413.4,38 C414.413338,37.9733332 415.366662,37.6400032 416.26,37 Z" id="What-you’ll-find-out"></path>
        </g>
    </g>
</svg>