<?xml version="1.0" encoding="UTF-8"?>
<svg width="360px" height="74px" viewBox="0 0 360 74" version="1.1" xmlns="http://www.w3.org/2000/svg" xmlns:xlink="http://www.w3.org/1999/xlink">
    <!-- Generator: Sketch 44.1 (41455) - http://www.bohemiancoding.com/sketch -->
    <title>Mobile</title>
    <desc>Created with Sketch.</desc>
    <defs></defs>
    <g id="Page-1" stroke="none" stroke-width="1" fill="none" fill-rule="evenodd">
        <g id="Mobile" fill="#001FF5">
            <path d="M26.68,20.68 C24.7866572,21.4000036 23.3200052,22.5133258 22.28,24.02 C21.2399948,25.5266742 20.72,27.3733224 20.72,29.56 C20.72,30.5466716 20.8133324,31.2333314 21,31.62 C21.1866676,32.0066686 21.28,32.2266664 21.28,32.28 C19.8399928,32.28 18.7666702,31.980003 18.06,31.38 C17.3533298,30.779997 17,29.7866736 17,28.4 C17,26.6933248 17.699993,25.0333414 19.1,23.42 C20.500007,21.8066586 22.2933224,20.500005 24.48,19.5 C26.6666776,18.499995 28.8533224,18 31.04,18 C31.4133352,18 31.9466632,18.0266664 32.64,18.08 L33,42.68 L41.4,18.2 L46.48,18.2 L46.84,42.68 L55.24,18.2 L58.04,18.2 L46.92,48 L41.16,48 L40.68,27.64 L33.08,48 L27.32,48 L26.68,20.68 Z M66.1,46.94 C65.3399962,46.073329 64.96,45.0000064 64.96,43.72 C64.96,43.1599972 65.026666,42.5266702 65.16,41.82 C65.293334,41.1133298 65.4333326,40.42667 65.58,39.76 C65.7266674,39.09333 65.8266664,38.6666676 65.88,38.48 C66.0933344,37.546662 66.2933324,36.6266712 66.48,35.72 C66.6666676,34.8133288 66.76,34.0800028 66.76,33.52 C66.76,32.1599932 66.2800048,31.48 65.32,31.48 C64.6266632,31.48 64.013336,31.8199966 63.48,32.5 C62.946664,33.1800034 62.5200016,34.0666612 62.2,35.16 L59.48,48 L53.72,48 L59.52,20.8 L65.44,20 L63.28,30.08 C64.61334,28.5866592 66.1733244,27.84 67.96,27.84 C69.3200068,27.84 70.399996,28.2133296 71.2,28.96 C72.000004,29.7066704 72.4,30.8399924 72.4,32.36 C72.4,33.1333372 72.3066676,33.9933286 72.12,34.94 C71.9333324,35.8866714 71.6666684,37.0399932 71.32,38.4 C71.1066656,39.2266708 70.9133342,40.0333294 70.74,40.82 C70.5666658,41.6066706 70.48,42.2266644 70.48,42.68 C70.48,43.213336 70.5999988,43.6266652 70.84,43.92 C71.0800012,44.2133348 71.4933304,44.36 72.08,44.36 C72.880004,44.36 73.5199976,44.0733362 74,43.5 C74.4800024,42.9266638 74.9599976,42.040006 75.44,40.84 L77.12,40.84 C76.1333284,43.773348 74.9933398,45.739995 73.7,46.74 C72.4066602,47.740005 71.0666736,48.24 69.68,48.24 C68.0533252,48.24 66.8600038,47.806671 66.1,46.94 Z M76.44,46.68 C75.4266616,45.6399948 74.92,44.0133444 74.92,41.8 C74.92,39.8266568 75.3133294,37.7533442 76.1,35.58 C76.8866706,33.4066558 78.0599922,31.5666742 79.62,30.06 C81.1800078,28.5533258 83.0399892,27.8 85.2,27.8 C86.2933388,27.8 87.106664,27.9866648 87.64,28.36 C88.173336,28.7333352 88.44,29.2266636 88.44,29.84 L88.44,30.12 L88.88,28 L94.64,28 L91.76,41.6 C91.6533328,42.000002 91.6,42.4266644 91.6,42.88 C91.6,44.0266724 92.1466612,44.6 93.24,44.6 C93.9866704,44.6 94.6333306,44.2533368 95.18,43.56 C95.7266694,42.8666632 96.1599984,41.9600056 96.48,40.84 L98.16,40.84 C97.1733284,43.7200144 95.9533406,45.6733282 94.5,46.7 C93.0466594,47.7266718 91.586674,48.24 90.12,48.24 C88.9999944,48.24 88.1000034,47.9266698 87.42,47.3 C86.7399966,46.6733302 86.333334,45.760006 86.2,44.56 C85.4266628,45.6533388 84.5666714,46.5399966 83.62,47.22 C82.6733286,47.9000034 81.5466732,48.24 80.24,48.24 C78.7199924,48.24 77.4533384,47.7200052 76.44,46.68 Z M84.82,43.42 C85.4733366,42.7933302 85.9199988,41.9333388 86.16,40.84 L88.08,31.8 C88.08,31.4533316 87.946668,31.113335 87.68,30.78 C87.413332,30.446665 87.0000028,30.28 86.44,30.28 C85.373328,30.28 84.4133376,30.8999938 83.56,32.14 C82.7066624,33.3800062 82.0400024,34.8733246 81.56,36.62 C81.0799976,38.3666754 80.84,39.90666 80.84,41.24 C80.84,42.57334 81.0333314,43.4266648 81.42,43.8 C81.8066686,44.1733352 82.2799972,44.36 82.84,44.36 C83.50667,44.36 84.1666634,44.0466698 84.82,43.42 Z M97.22,47 C96.5666634,46.1733292 96.24,45.0800068 96.24,43.72 C96.24,43.0266632 96.3199992,42.3200036 96.48,41.6 L99.04,29.6 L97.72,29.6 L98.04,28 L99.36,28 L100.56,22.48 L106.48,21.68 C106.239999,22.6933384 106.106667,23.2933324 106.08,23.48 C105.893332,24.2266704 105.573336,25.733322 105.12,28 L107.52,28 L107.2,29.6 L104.8,29.6 L102.24,41.6 C102.106666,42.1866696 102.04,42.6533316 102.04,43 C102.04,43.9600048 102.506662,44.44 103.44,44.44 C103.920002,44.44 104.266666,44.4000004 104.48,44.32 C103.946664,45.8666744 103.320004,46.906664 102.6,47.44 C101.879996,47.973336 101.093338,48.24 100.24,48.24 C98.8799932,48.24 97.8733366,47.8266708 97.22,47 Z M119.24,57 C118.386662,56.33333 117.96,55.3733396 117.96,54.12 C117.96,52.5999924 118.573327,51.3800046 119.8,50.46 C121.026673,49.5399954 122.586657,48.7733364 124.48,48.16 L124.96,46 C124.186663,46.8533376 123.400004,47.4399984 122.6,47.76 C121.799996,48.0800016 120.986671,48.24 120.16,48.24 C118.879994,48.24 117.846671,47.840004 117.06,47.04 C116.273329,46.239996 115.88,45.040008 115.88,43.44 C115.88,42.77333 115.986666,41.906672 116.2,40.84 L118.92,28 L124.68,28 L121.8,41.6 C121.72,41.9200016 121.68,42.2533316 121.68,42.6 C121.68,43.7733392 122.079996,44.36 122.88,44.36 C123.573337,44.36 124.186664,44.060003 124.72,43.46 C125.253336,42.859997 125.679998,42.0666716 126,41.08 L128.8,28 L134.56,28 L130.6,46.56 C131.880006,46.1333312 132.906663,45.4933376 133.68,44.64 C134.453337,43.7866624 135.106664,42.5200084 135.64,40.84 L137.32,40.84 C136.599996,43.2133452 135.626673,44.9533278 134.4,46.06 C133.173327,47.1666722 131.786674,47.919998 130.24,48.32 L129.64,51.2 C129.106664,53.7866796 128.186673,55.5666618 126.88,56.54 C125.573327,57.5133382 124.093342,58 122.44,58 C121.159994,58 120.093338,57.66667 119.24,57 Z M122.84,53.96 C123.266669,53.3466636 123.599999,52.4666724 123.84,51.32 L124.08,50.16 C121.466654,51.1200048 120.16,52.2533268 120.16,53.56 C120.16,53.9066684 120.279999,54.213332 120.52,54.48 C120.760001,54.746668 121.093331,54.88 121.52,54.88 C121.973336,54.88 122.413331,54.5733364 122.84,53.96 Z M136.8,46.64 C135.653328,45.6266616 135.08,44.0266776 135.08,41.84 C135.08,40.0266576 135.45333,38.0133444 136.2,35.8 C136.94667,33.5866556 138.146658,31.6733414 139.8,30.06 C141.453342,28.4466586 143.533321,27.64 146.04,27.64 C149.45335,27.64 151.16,29.773312 151.16,34.04 L151.16,34.08 C151.24,34.1066668 151.386666,34.12 151.6,34.12 C152.480004,34.12 153.493328,33.886669 154.64,33.42 C155.786672,32.953331 156.826662,32.38667 157.76,31.72 L158.12,32.8 C157.346663,33.6266708 156.340006,34.3266638 155.1,34.9 C153.859994,35.4733362 152.506674,35.8799988 151.04,36.12 C150.826666,38.5466788 150.280004,40.6666576 149.4,42.48 C148.519996,44.2933424 147.386674,45.6933284 146,46.68 C144.613326,47.6666716 143.106675,48.16 141.48,48.16 C139.506657,48.16 137.946672,47.6533384 136.8,46.64 Z M145,43.46 C145.640003,42.726663 146.199998,41.726673 146.68,40.46 C147.160002,39.193327 147.506666,37.7866744 147.72,36.24 C146.999996,36.0799992 146.64,35.5200048 146.64,34.56 C146.64,33.4666612 147.053329,32.7466684 147.88,32.4 C147.826666,31.5199956 147.693334,30.913335 147.48,30.58 C147.266666,30.246665 146.893336,30.08 146.36,30.08 C145.479996,30.08 144.626671,30.7199936 143.8,32 C142.973329,33.2800064 142.306669,34.8133244 141.8,36.6 C141.293331,38.3866756 141.04,39.9599932 141.04,41.32 C141.04,42.6000064 141.186665,43.4599978 141.48,43.9 C141.773335,44.3400022 142.306663,44.56 143.08,44.56 C143.720003,44.56 144.359997,44.193337 145,43.46 Z M154.06,47.04 C153.273329,46.239996 152.88,45.040008 152.88,43.44 C152.88,42.77333 152.986666,41.906672 153.2,40.84 L155.92,28 L161.68,28 L158.8,41.6 C158.72,41.9200016 158.68,42.2533316 158.68,42.6 C158.68,43.7733392 159.079996,44.36 159.88,44.36 C160.62667,44.36 161.266664,44.0466698 161.8,43.42 C162.333336,42.7933302 162.759998,41.9333388 163.08,40.84 L165.8,28 L171.56,28 L168.68,41.6 C168.573333,42.000002 168.52,42.4266644 168.52,42.88 C168.52,43.413336 168.646665,43.7933322 168.9,44.02 C169.153335,44.2466678 169.57333,44.36 170.16,44.36 C170.586669,44.36 170.899999,44.326667 171.1,44.26 C171.300001,44.193333 171.426666,44.1466668 171.48,44.12 C171.373333,45.4800068 170.906671,46.5066632 170.08,47.2 C169.253329,47.8933368 168.240006,48.24 167.04,48.24 C165.919994,48.24 165.020003,47.90667 164.34,47.24 C163.659997,46.57333 163.253334,45.640006 163.12,44.44 C162.213329,45.906674 161.260005,46.906664 160.26,47.44 C159.259995,47.973336 158.226672,48.24 157.16,48.24 C155.879994,48.24 154.846671,47.840004 154.06,47.04 Z M175.08,25.24 C175.66667,24.5999968 176.066666,24.1066684 176.28,23.76 C176.493334,23.4133316 176.6,23.0933348 176.6,22.8 C176.6,22.5599988 176.546667,22.3533342 176.44,22.18 C176.333333,22.0066658 176.146668,21.7733348 175.88,21.48 C175.586665,21.1599984 175.366667,20.866668 175.22,20.6 C175.073333,20.333332 175,20.0266684 175,19.68 C175,19.0399968 175.233331,18.5133354 175.7,18.1 C176.166669,17.6866646 176.759996,17.48 177.48,17.48 C178.200004,17.48 178.779998,17.713331 179.22,18.18 C179.660002,18.646669 179.88,19.2666628 179.88,20.04 C179.88,21.0800052 179.520004,22.1733276 178.8,23.32 C178.079996,24.4666724 177.146672,25.4133296 176,26.16 L175.08,25.24 Z M181.94,47.04 C181.153329,46.239996 180.76,45.040008 180.76,43.44 C180.76,42.77333 180.866666,41.906672 181.08,40.84 L185.36,20.8 L191.28,20 L186.68,41.6 C186.573333,42.000002 186.52,42.4266644 186.52,42.88 C186.52,43.413336 186.646665,43.7933322 186.9,44.02 C187.153335,44.2466678 187.57333,44.36 188.16,44.36 C188.933337,44.36 189.65333,44.0333366 190.32,43.38 C190.98667,42.7266634 191.466665,41.8800052 191.76,40.84 L193.44,40.84 C192.453328,43.7200144 191.186674,45.6733282 189.64,46.7 C188.093326,47.7266718 186.560008,48.24 185.04,48.24 C183.759994,48.24 182.726671,47.840004 181.94,47.04 Z M192.54,47.02 C191.753329,46.2066626 191.36,44.9866748 191.36,43.36 C191.36,42.69333 191.466666,41.826672 191.68,40.76 L195.96,20.72 L201.88,19.92 L197.28,41.52 C197.173333,41.920002 197.12,42.3066648 197.12,42.68 C197.12,43.746672 197.666661,44.28 198.76,44.28 C199.240002,44.28 199.666665,44.2000008 200.04,44.04 C199.933333,45.37334 199.460004,46.406663 198.62,47.14 C197.779996,47.873337 196.786672,48.24 195.64,48.24 C194.359994,48.24 193.326671,47.8333374 192.54,47.02 Z M201.82,56.78 C200.899995,55.9666626 200.44,54.8800068 200.44,53.52 C200.44,52.3999944 200.759997,51.4800036 201.4,50.76 C202.040003,50.0399964 202.826662,49.4666688 203.76,49.04 C204.693338,48.6133312 205.893326,48.1600024 207.36,47.68 L211.8,26.64 C212.520004,23.3333168 213.719992,21.0733394 215.4,19.86 C217.080008,18.6466606 218.999989,18.04 221.16,18.04 C223.16001,18.04 224.853326,18.37333 226.24,19.04 C227.626674,19.70667 228.32,20.906658 228.32,22.64 C228.32,23.7600056 228.020003,24.5799974 227.42,25.1 C226.819997,25.6200026 226.066671,25.88 225.16,25.88 C224.466663,25.88 223.893336,25.713335 223.44,25.38 C222.986664,25.046665 222.76,24.4933372 222.76,23.72 C222.76,23.2133308 222.886665,22.760002 223.14,22.36 C223.393335,21.959998 223.719998,21.76 224.12,21.76 C224.306668,21.76 224.413333,21.7733332 224.44,21.8 C224.413333,21.266664 224.206669,20.866668 223.82,20.6 C223.433331,20.333332 222.90667,20.2 222.24,20.2 C221.066661,20.2 220.12667,20.6266624 219.42,21.48 C218.71333,22.3333376 218.240001,23.4133268 218,24.72 L217.32,28 L220.52,28 L220.2,29.6 L217,29.6 L212.44,51.2 C211.906664,53.7066792 210.986673,55.4666616 209.68,56.48 C208.373327,57.4933384 206.946674,58 205.4,58 C203.933326,58 202.740005,57.5933374 201.82,56.78 Z M220.26,47.04 C219.473329,46.239996 219.08,45.040008 219.08,43.44 C219.08,42.77333 219.186666,41.906672 219.4,40.84 L222.12,28 L227.88,28 L225,41.6 C224.893333,42.000002 224.84,42.4266644 224.84,42.88 C224.84,43.413336 224.966665,43.7933322 225.22,44.02 C225.473335,44.2466678 225.89333,44.36 226.48,44.36 C227.253337,44.36 227.97333,44.0333366 228.64,43.38 C229.30667,42.7266634 229.786665,41.8800052 230.08,40.84 L231.76,40.84 C230.773328,43.7200144 229.506674,45.6733282 227.96,46.7 C226.413326,47.7266718 224.880008,48.24 223.36,48.24 C222.079994,48.24 221.046671,47.840004 220.26,47.04 Z M205.62,53.68 C206.060002,53.1733308 206.386666,52.386672 206.6,51.32 L207.08,49 C205.719993,49.4266688 204.640004,49.9666634 203.84,50.62 C203.039996,51.2733366 202.64,52.0133292 202.64,52.84 C202.64,53.4266696 202.826665,53.8399988 203.2,54.08 C203.573335,54.3200012 203.933332,54.44 204.28,54.44 C204.733336,54.44 205.179998,54.1866692 205.62,53.68 Z M240.94,46.94 C240.179996,46.073329 239.8,45.0000064 239.8,43.72 C239.8,43.1599972 239.866666,42.5266702 240,41.82 C240.133334,41.1133298 240.273333,40.42667 240.42,39.76 C240.566667,39.09333 240.666666,38.6666676 240.72,38.48 C240.933334,37.546662 241.133332,36.6266712 241.32,35.72 C241.506668,34.8133288 241.6,34.0800028 241.6,33.52 C241.6,32.1599932 241.120005,31.48 240.16,31.48 C239.466663,31.48 238.853336,31.8199966 238.32,32.5 C237.786664,33.1800034 237.360002,34.0666612 237.04,35.16 L234.32,48 L228.56,48 L232.8,28 L238.56,28 L238.12,30.08 C239.45334,28.5866592 241.013324,27.84 242.8,27.84 C244.160007,27.84 245.239996,28.2133296 246.04,28.96 C246.840004,29.7066704 247.24,30.8399924 247.24,32.36 C247.24,33.1333372 247.146668,33.9933286 246.96,34.94 C246.773332,35.8866714 246.506668,37.0399932 246.16,38.4 C245.946666,39.2266708 245.753334,40.0333294 245.58,40.82 C245.406666,41.6066706 245.32,42.2266644 245.32,42.68 C245.32,43.213336 245.439999,43.6266652 245.68,43.92 C245.920001,44.2133348 246.33333,44.36 246.92,44.36 C247.720004,44.36 248.359998,44.0733362 248.84,43.5 C249.320002,42.9266638 249.799998,42.040006 250.28,40.84 L251.96,40.84 C250.973328,43.773348 249.83334,45.739995 248.54,46.74 C247.24666,47.740005 245.906674,48.24 244.52,48.24 C242.893325,48.24 241.700004,47.806671 240.94,46.94 Z M251.28,46.68 C250.266662,45.6399948 249.76,44.0133444 249.76,41.8 C249.76,39.8266568 250.153329,37.7533442 250.94,35.58 C251.726671,33.4066558 252.899992,31.5666742 254.46,30.06 C256.020008,28.5533258 257.879989,27.8 260.04,27.8 C261.133339,27.8 261.946664,27.9866648 262.48,28.36 C263.013336,28.7333352 263.28,29.2266636 263.28,29.84 L263.28,30 L265.24,20.8 L271.16,20 L266.56,41.6 C266.453333,42.000002 266.4,42.3866648 266.4,42.76 C266.4,43.826672 266.946661,44.36 268.04,44.36 C268.520002,44.36 268.946665,44.2800008 269.32,44.12 C269.213333,45.45334 268.740004,46.4733298 267.9,47.18 C267.059996,47.8866702 266.066672,48.24 264.92,48.24 C263.853328,48.24 262.953337,47.9666694 262.22,47.42 C261.486663,46.8733306 261.000001,46.0400056 260.76,44.92 C259.159992,47.1333444 257.266678,48.24 255.08,48.24 C253.559992,48.24 252.293338,47.7200052 251.28,46.68 Z M259.46,43.6 C260.060003,43.0933308 260.506665,42.3866712 260.8,41.48 L260.96,40.84 L262.92,31.68 C262.679999,30.746662 262.133338,30.28 261.28,30.28 C260.213328,30.28 259.253338,30.8999938 258.4,32.14 C257.546662,33.3800062 256.880002,34.8733246 256.4,36.62 C255.919998,38.3666754 255.68,39.90666 255.68,41.24 C255.68,42.57334 255.873331,43.4266648 256.26,43.8 C256.646669,44.1733352 257.119997,44.36 257.68,44.36 C258.26667,44.36 258.859997,44.1066692 259.46,43.6 Z M288.86,46.94 C288.099996,46.073329 287.72,45.0000064 287.72,43.72 C287.72,43.1599972 287.786666,42.5266702 287.92,41.82 C288.053334,41.1133298 288.193333,40.42667 288.34,39.76 C288.486667,39.09333 288.586666,38.6666676 288.64,38.48 C288.853334,37.546662 289.053332,36.6266712 289.24,35.72 C289.426668,34.8133288 289.52,34.0800028 289.52,33.52 C289.52,32.1599932 289.040005,31.48 288.08,31.48 C287.386663,31.48 286.773336,31.8199966 286.24,32.5 C285.706664,33.1800034 285.280002,34.0666612 284.96,35.16 L282.24,48 L276.48,48 L282.28,20.8 L288.2,20 L286.04,30.08 C287.37334,28.5866592 288.933324,27.84 290.72,27.84 C292.080007,27.84 293.159996,28.2133296 293.96,28.96 C294.760004,29.7066704 295.16,30.8399924 295.16,32.36 C295.16,33.1333372 295.066668,33.9933286 294.88,34.94 C294.693332,35.8866714 294.426668,37.0399932 294.08,38.4 C293.866666,39.2266708 293.673334,40.0333294 293.5,40.82 C293.326666,41.6066706 293.24,42.2266644 293.24,42.68 C293.24,43.213336 293.359999,43.6266652 293.6,43.92 C293.840001,44.2133348 294.25333,44.36 294.84,44.36 C295.640004,44.36 296.279998,44.0733362 296.76,43.5 C297.240002,42.9266638 297.719998,42.040006 298.2,40.84 L299.88,40.84 C298.893328,43.773348 297.75334,45.739995 296.46,46.74 C295.16666,47.740005 293.826674,48.24 292.44,48.24 C290.813325,48.24 289.620004,47.806671 288.86,46.94 Z M299.32,46.7 C298.226661,45.6733282 297.68,44.0666776 297.68,41.88 C297.68,40.0399908 298.039996,38.0133444 298.76,35.8 C299.480004,33.5866556 300.653325,31.6733414 302.28,30.06 C303.906675,28.4466586 305.973321,27.64 308.48,27.64 C311.413348,27.64 312.88,28.9199872 312.88,31.48 C312.88,32.9733408 312.453338,34.3466604 311.6,35.6 C310.746662,36.8533396 309.61334,37.8599962 308.2,38.62 C306.78666,39.3800038 305.280008,39.8133328 303.68,39.92 C303.626666,40.720004 303.6,41.253332 303.6,41.52 C303.6,42.8266732 303.826664,43.713331 304.28,44.18 C304.733336,44.646669 305.466662,44.88 306.48,44.88 C307.920007,44.88 309.153328,44.54667 310.18,43.88 C311.206672,43.21333 312.333327,42.2000068 313.56,40.84 L314.92,40.84 C311.959985,45.773358 308.293355,48.24 303.92,48.24 C301.946657,48.24 300.413339,47.7266718 299.32,46.7 Z M306.82,36.96 C307.713338,36.3199968 308.433331,35.5066716 308.98,34.52 C309.526669,33.5333284 309.8,32.4933388 309.8,31.4 C309.8,30.3066612 309.46667,29.76 308.8,29.76 C307.839995,29.76 306.900005,30.5999916 305.98,32.28 C305.059995,33.9600084 304.400002,35.866656 304,38 C304.986672,37.9466664 305.926662,37.6000032 306.82,36.96 Z M316.28,28 L322.04,28 L321.52,30.48 C322.426671,29.679996 323.246663,29.0666688 323.98,28.64 C324.713337,28.2133312 325.506662,28 326.36,28 C327.213338,28 327.886664,28.2933304 328.38,28.88 C328.873336,29.4666696 329.12,30.1733292 329.12,31 C329.12,31.7733372 328.866669,32.4533304 328.36,33.04 C327.853331,33.6266696 327.146671,33.92 326.24,33.92 C325.65333,33.92 325.260001,33.7800014 325.06,33.5 C324.859999,33.2199986 324.706667,32.813336 324.6,32.28 C324.52,31.9333316 324.44,31.6800008 324.36,31.52 C324.28,31.3599992 324.133334,31.28 323.92,31.28 C323.359997,31.28 322.886669,31.3933322 322.5,31.62 C322.113331,31.8466678 321.613336,32.2399972 321,32.8 L317.8,48 L312.04,48 L316.28,28 Z M329.68,46.7 C328.586661,45.6733282 328.04,44.0666776 328.04,41.88 C328.04,40.0399908 328.399996,38.0133444 329.12,35.8 C329.840004,33.5866556 331.013325,31.6733414 332.64,30.06 C334.266675,28.4466586 336.333321,27.64 338.84,27.64 C341.773348,27.64 343.24,28.9199872 343.24,31.48 C343.24,32.9733408 342.813338,34.3466604 341.96,35.6 C341.106662,36.8533396 339.97334,37.8599962 338.56,38.62 C337.14666,39.3800038 335.640008,39.8133328 334.04,39.92 C333.986666,40.5066696 333.96,40.9066656 333.96,41.12 C333.96,43.3333444 334.786658,44.44 336.44,44.44 C337.18667,44.44 337.986662,44.240002 338.84,43.84 C339.693338,43.439998 340.466663,42.9333364 341.16,42.32 C340.439996,46.2666864 338.133353,48.24 334.24,48.24 C332.293324,48.24 330.773339,47.7266718 329.68,46.7 Z M337.18,37 C338.073338,36.3599968 338.793331,35.540005 339.34,34.54 C339.886669,33.539995 340.16,32.4933388 340.16,31.4 C340.16,30.3066612 339.82667,29.76 339.16,29.76 C338.226662,29.76 337.300005,30.6066582 336.38,32.3 C335.459995,33.9933418 334.773336,35.8933228 334.32,38 C335.333338,37.9733332 336.286662,37.6400032 337.18,37 Z" id="What-you’ll-find-her"></path>
        </g>
    </g>
</svg>